<svg width="73" height="26" viewBox="0 0 73 26" fill="none" xmlns="http://www.w3.org/2000/svg">
<path d="M12.1 25.4375C10.475 25.4375 8.975 25.1771 7.6 24.6562C6.225 24.1146 5.02708 23.3438 4.00625 22.3438C2.98542 21.3229 2.18333 20.0417 1.6 18.5C1.01667 16.9375 0.724998 15.1875 0.724998 13.25C0.724998 11.3542 1.01667 9.625 1.6 8.0625C2.20417 6.47917 3.01667 5.16667 4.0375 4.125C5.07917 3.08333 6.2875 2.28125 7.6625 1.71875C9.0375 1.15625 10.5167 0.875 12.1 0.875C14.3292 0.875 16.3083 1.48958 18.0375 2.71875C18.475 3.03125 18.6937 3.48958 18.6937 4.09375C18.6937 4.55208 18.5375 4.95833 18.225 5.3125L18.0687 5.5C17.7562 5.875 17.35 6.08333 16.85 6.125C16.7875 6.125 16.725 6.125 16.6625 6.125C16.225 6.125 15.8187 6.01042 15.4437 5.78125C14.5062 5.21875 13.4437 4.9375 12.2562 4.9375C10.2562 4.9375 8.64167 5.67708 7.4125 7.15625C6.18333 8.61458 5.56875 10.5938 5.56875 13.0938C5.56875 15.7188 6.1625 17.75 7.35 19.1875C8.5375 20.625 10.2771 21.3438 12.5687 21.3438C13.7146 21.3438 14.6521 21.0938 15.3812 20.5938C15.4854 20.5104 15.5375 20.3854 15.5375 20.2188V16.0312C15.5375 15.8646 15.4646 15.7812 15.3187 15.7812H13.1937C12.6937 15.7812 12.2562 15.6042 11.8812 15.25C11.5271 14.8958 11.35 14.4583 11.35 13.9375V13.75C11.35 13.25 11.5271 12.8229 11.8812 12.4688C12.2562 12.0938 12.6937 11.9062 13.1937 11.9062H17.9437C18.4437 11.9062 18.8708 12.0938 19.225 12.4688C19.6 12.8229 19.7875 13.25 19.7875 13.75V20.75C19.7875 22.125 19.2979 23.1146 18.3187 23.7188C16.5062 24.8646 14.4333 25.4375 12.1 25.4375ZM43.5125 22.0938C41.575 24.3229 39.0229 25.4375 35.8562 25.4375C32.6896 25.4375 30.1271 24.3229 28.1687 22.0938C26.2312 19.8646 25.2625 16.8542 25.2625 13.0625C25.2625 9.27083 26.2312 6.29167 28.1687 4.125C30.1062 1.95833 32.6687 0.875 35.8562 0.875C39.0437 0.875 41.6062 1.95833 43.5437 4.125C45.4812 6.29167 46.45 9.27083 46.45 13.0625C46.45 16.8542 45.4708 19.8646 43.5125 22.0938ZM31.6687 19.0938C32.7104 20.5938 34.1062 21.3438 35.8562 21.3438C37.6271 21.3438 39.0333 20.5938 40.075 19.0938C41.1167 17.5938 41.6375 15.5833 41.6375 13.0625C41.6375 10.5417 41.1167 8.5625 40.075 7.125C39.0333 5.66667 37.6271 4.9375 35.8562 4.9375C34.0854 4.9375 32.6792 5.66667 31.6375 7.125C30.6167 8.5625 30.1062 10.5417 30.1062 13.0625C30.1062 15.5833 30.6271 17.5938 31.6687 19.0938ZM56.8 16.5C56.4875 16.7917 56.1125 16.9375 55.675 16.9375C55.2583 16.9375 54.8937 16.7917 54.5812 16.5C54.2687 16.2083 54.0917 15.8438 54.05 15.4062L53.4875 5.125L53.3937 2.53125C53.3729 2.03125 53.5292 1.60417 53.8625 1.25C54.2167 0.875 54.6542 0.6875 55.175 0.6875H56.2062C56.7062 0.6875 57.1333 0.875 57.4875 1.25C57.8417 1.60417 58.0083 2.03125 57.9875 2.53125L57.8937 5.125L57.3 15.4062C57.2792 15.8438 57.1125 16.2083 56.8 16.5ZM57.7687 24.5625C57.2062 25.1458 56.5083 25.4375 55.675 25.4375C54.8625 25.4375 54.175 25.1458 53.6125 24.5625C53.05 23.9792 52.7687 23.25 52.7687 22.375C52.7687 21.5 53.05 20.7708 53.6125 20.1875C54.175 19.6042 54.8625 19.3125 55.675 19.3125C56.5083 19.3125 57.2062 19.6146 57.7687 20.2188C58.3521 20.8021 58.6437 21.5312 58.6437 22.4062C58.6437 23.2604 58.3521 23.9792 57.7687 24.5625ZM70.2125 16.5C69.9 16.7917 69.525 16.9375 69.0875 16.9375C68.6708 16.9375 68.3063 16.7917 67.9938 16.5C67.6813 16.2083 67.5042 15.8438 67.4625 15.4062L66.9 5.125L66.8063 2.53125C66.7854 2.03125 66.9417 1.60417 67.275 1.25C67.6292 0.875 68.0667 0.6875 68.5875 0.6875H69.6188C70.1188 0.6875 70.5458 0.875 70.9 1.25C71.2542 1.60417 71.4208 2.03125 71.4 2.53125L71.3063 5.125L70.7125 15.4062C70.6917 15.8438 70.525 16.2083 70.2125 16.5ZM71.1813 24.5625C70.6188 25.1458 69.9208 25.4375 69.0875 25.4375C68.275 25.4375 67.5875 25.1458 67.025 24.5625C66.4625 23.9792 66.1813 23.25 66.1813 22.375C66.1813 21.5 66.4625 20.7708 67.025 20.1875C67.5875 19.6042 68.275 19.3125 69.0875 19.3125C69.9208 19.3125 70.6188 19.6146 71.1813 20.2188C71.7646 20.8021 72.0563 21.5312 72.0563 22.4062C72.0563 23.2604 71.7646 23.9792 71.1813 24.5625Z" fill="#FF5136"/>
</svg>
