<svg width="135" height="42" viewBox="0 0 135 42" fill="none" xmlns="http://www.w3.org/2000/svg">
<rect width="135" height="42" rx="21" fill="#007FAB"/>
<g clip-path="url(#clip0_15_234)">
<path d="M36.25 20.0833C38.2751 20.0833 39.9167 18.4417 39.9167 16.4167C39.9167 14.3916 38.2751 12.75 36.25 12.75C34.225 12.75 32.5834 14.3916 32.5834 16.4167C32.5834 18.4417 34.225 20.0833 36.25 20.0833Z" stroke="white" stroke-width="2.5" stroke-linecap="round" stroke-linejoin="round"/>
<path d="M30.75 29.25V27.4167C30.75 26.4442 31.1363 25.5116 31.8239 24.8239C32.5116 24.1363 33.4442 23.75 34.4167 23.75H38.0833C39.0558 23.75 39.9884 24.1363 40.6761 24.8239C41.3637 25.5116 41.75 26.4442 41.75 27.4167V29.25" stroke="white" stroke-width="2.5" stroke-linecap="round" stroke-linejoin="round"/>
<path d="M43.5406 19.6253C43.9694 19.3866 44.3488 19.0626 44.6537 18.6698C45.1529 18.0267 45.4239 17.2357 45.4239 16.4215C45.4239 15.6074 45.1529 14.8164 44.6537 14.1732C44.2536 13.6578 43.7251 13.2608 43.125 13.0195" stroke="white" stroke-width="2.5" stroke-linecap="round" stroke-linejoin="round"/>
<path d="M47.25 29.2502V27.4169C47.2453 26.6076 46.9731 25.8226 46.4757 25.1842C45.9782 24.5459 45.2836 24.09 44.5 23.8877" stroke="white" stroke-width="2.5" stroke-linecap="round" stroke-linejoin="round"/>
</g>
<path d="M65.3516 30C64.9766 30 64.6484 29.8672 64.3672 29.6016C64.1016 29.3203 63.9688 28.9922 63.9688 28.6172V28.5234C63.9688 28.1484 64.1016 27.8281 64.3672 27.5625C64.6484 27.2812 64.9766 27.1406 65.3516 27.1406H67.6016C67.7266 27.1406 67.7891 27.0859 67.7891 26.9766V16.0781C67.7891 15.9688 67.7266 15.9141 67.6016 15.9141H65.6562C65.3594 15.9141 65.1016 15.8125 64.8828 15.6094C64.6797 15.3906 64.5781 15.125 64.5781 14.8125C64.5781 14.5 64.6719 14.2266 64.8594 13.9922C65.0625 13.7422 65.3203 13.5781 65.6328 13.5C66.3359 13.3125 66.9688 13.0938 67.5312 12.8438C68.4531 12.4375 69.2812 12.2344 70.0156 12.2344C70.375 12.2344 70.6797 12.3672 70.9297 12.6328C71.1797 12.8828 71.3047 13.1875 71.3047 13.5469V26.9766C71.3047 27.0859 71.3672 27.1406 71.4922 27.1406H73.2734C73.6484 27.1406 73.9688 27.2812 74.2344 27.5625C74.5156 27.8281 74.6562 28.1484 74.6562 28.5234V28.6172C74.6562 28.9922 74.5156 29.3203 74.2344 29.6016C73.9688 29.8672 73.6484 30 73.2734 30H65.3516ZM80.6844 30C80.3094 30 79.9812 29.8672 79.7 29.6016C79.4344 29.3203 79.3016 28.9922 79.3016 28.6172V28.5234C79.3016 28.1484 79.4344 27.8281 79.7 27.5625C79.9812 27.2812 80.3094 27.1406 80.6844 27.1406H82.9344C83.0594 27.1406 83.1219 27.0859 83.1219 26.9766V16.0781C83.1219 15.9688 83.0594 15.9141 82.9344 15.9141H80.9891C80.6922 15.9141 80.4344 15.8125 80.2156 15.6094C80.0125 15.3906 79.9109 15.125 79.9109 14.8125C79.9109 14.5 80.0047 14.2266 80.1922 13.9922C80.3953 13.7422 80.6531 13.5781 80.9656 13.5C81.6687 13.3125 82.3016 13.0938 82.8641 12.8438C83.7859 12.4375 84.6141 12.2344 85.3484 12.2344C85.7078 12.2344 86.0125 12.3672 86.2625 12.6328C86.5125 12.8828 86.6375 13.1875 86.6375 13.5469V26.9766C86.6375 27.0859 86.7 27.1406 86.825 27.1406H88.6062C88.9812 27.1406 89.3016 27.2812 89.5672 27.5625C89.8484 27.8281 89.9891 28.1484 89.9891 28.5234V28.6172C89.9891 28.9922 89.8484 29.3203 89.5672 29.6016C89.3016 29.8672 88.9812 30 88.6062 30H80.6844ZM99.7437 30.3281C97.8844 30.3281 96.4156 29.5312 95.3375 27.9375C94.2594 26.3438 93.7203 24.0469 93.7203 21.0469C93.7203 18.0469 94.2594 15.7734 95.3375 14.2266C96.4156 12.6797 97.8844 11.9062 99.7437 11.9062C101.603 11.9062 103.064 12.6875 104.127 14.25C105.205 15.7969 105.744 18.0625 105.744 21.0469C105.744 24.0469 105.205 26.3438 104.127 27.9375C103.048 29.5312 101.587 30.3281 99.7437 30.3281ZM99.7437 27.5859C101.525 27.5859 102.416 25.4062 102.416 21.0469C102.416 16.7812 101.525 14.6484 99.7437 14.6484C99.3375 14.6484 98.9781 14.75 98.6656 14.9531C98.3531 15.1562 98.0719 15.5 97.8219 15.9844C97.5719 16.4531 97.3766 17.1172 97.2359 17.9766C97.1109 18.8203 97.0484 19.8438 97.0484 21.0469C97.0484 25.4062 97.9469 27.5859 99.7437 27.5859Z" fill="white"/>
<defs>
<clipPath id="clip0_15_234">
<rect width="22" height="22" fill="white" transform="translate(28 10)"/>
</clipPath>
</defs>
</svg>
