<svg width="110" height="18" viewBox="0 0 110 18" fill="none" xmlns="http://www.w3.org/2000/svg">
<path d="M5.51 12.094H12.8V13.588H5.51V12.094ZM5.51 9.664H12.8V11.14H5.51V9.664ZM4.178 8.692V14.56H14.186V8.692H4.178ZM1.226 3.184V4.372H17.192V3.184H1.226ZM8.462 0.879999V8.134H9.812V0.879999H8.462ZM7.688 3.526C6.248 5.542 3.422 7.486 0.829997 8.368C1.118 8.638 1.514 9.124 1.712 9.448C4.358 8.404 7.202 6.298 8.822 3.976L7.688 3.526ZM10.55 3.544L9.452 3.976C11.09 6.244 13.97 8.314 16.652 9.322C16.85 8.962 17.246 8.458 17.552 8.206C14.888 7.36 12.008 5.506 10.55 3.544ZM1.514 15.658V16.864H16.94V15.658H1.514ZM31.9018 11.1133C31.9955 11.1133 32.0424 11.0723 32.0424 10.9902V10.2344C32.0424 10.1406 31.9955 10.0938 31.9018 10.0938H24.976C24.8823 10.0938 24.8354 10.1406 24.8354 10.2344V10.9902C24.8354 11.0723 24.8823 11.1133 24.976 11.1133H31.9018ZM24.8354 15.3496C24.8354 15.4316 24.8823 15.4727 24.976 15.4727H31.9018C31.9955 15.4727 32.0424 15.4316 32.0424 15.3496V14.5059C32.0424 14.4238 31.9955 14.3828 31.9018 14.3828H24.976C24.8823 14.3828 24.8354 14.4238 24.8354 14.5059V15.3496ZM24.976 12.2383C24.8823 12.2383 24.8354 12.2793 24.8354 12.3613V13.1348C24.8354 13.2168 24.8823 13.2578 24.976 13.2578H31.9018C31.9955 13.2578 32.0424 13.2168 32.0424 13.1348V12.3613C32.0424 12.2793 31.9955 12.2383 31.9018 12.2383H24.976ZM35.2416 6.61328C35.3823 6.74219 35.4526 6.90039 35.4526 7.08789C35.4526 7.27539 35.3823 7.43359 35.2416 7.5625C35.1127 7.69141 34.9604 7.75586 34.7846 7.75586H25.767C25.6733 7.75586 25.6088 7.79688 25.5737 7.87891C25.3627 8.26562 25.2104 8.53516 25.1166 8.6875C25.0932 8.71094 25.0873 8.73438 25.0991 8.75781C25.1225 8.78125 25.1459 8.79297 25.1694 8.79297H32.6752C32.9682 8.79297 33.2143 8.89844 33.4135 9.10938C33.6127 9.30859 33.7123 9.54883 33.7123 9.83008V16.6328C33.7123 16.8672 33.6303 17.0664 33.4662 17.2305C33.3022 17.3945 33.1088 17.4766 32.8862 17.4766H32.6401C32.476 17.4766 32.3354 17.418 32.2182 17.3008C32.101 17.1836 32.0424 17.0371 32.0424 16.8613C32.0424 16.8145 32.019 16.791 31.9721 16.791H24.9233C24.8647 16.791 24.8354 16.8145 24.8354 16.8613C24.8354 17.0371 24.7768 17.1836 24.6596 17.3008C24.5424 17.418 24.4018 17.4766 24.2377 17.4766H24.0444C23.8217 17.4766 23.6284 17.3945 23.4643 17.2305C23.312 17.0781 23.2358 16.8906 23.2358 16.668V11.2891C23.2358 11.2656 23.2241 11.2539 23.2006 11.2539C23.1772 11.2422 23.1596 11.2422 23.1479 11.2539C22.4565 11.9688 21.7182 12.5957 20.933 13.1348C20.7924 13.2168 20.6459 13.2578 20.4936 13.2578C20.4233 13.2578 20.3588 13.252 20.3002 13.2402C20.0776 13.1816 19.8901 13.0586 19.7377 12.8711C19.6323 12.7422 19.5795 12.5957 19.5795 12.4316C19.5795 12.3965 19.5854 12.3555 19.5971 12.3086C19.6205 12.0977 19.7202 11.9336 19.8959 11.8164C21.3959 10.832 22.6498 9.51367 23.6577 7.86133C23.6694 7.83789 23.6694 7.81445 23.6577 7.79102C23.6459 7.76758 23.6225 7.75586 23.5873 7.75586H20.3354C20.1596 7.75586 20.0014 7.69141 19.8608 7.5625C19.7319 7.43359 19.6674 7.27539 19.6674 7.08789C19.6674 6.90039 19.7319 6.74219 19.8608 6.61328C20.0014 6.48438 20.1596 6.41992 20.3354 6.41992H24.308C24.4018 6.41992 24.4662 6.38477 24.5014 6.31445C24.5834 6.15039 24.7123 5.86914 24.8881 5.4707C24.9116 5.43555 24.9116 5.40625 24.8881 5.38281C24.8764 5.35938 24.853 5.34766 24.8178 5.34766H21.6186C21.4311 5.34766 21.2729 5.2832 21.144 5.1543C21.0151 5.02539 20.9506 4.87305 20.9506 4.69727C20.9506 4.50977 21.0151 4.35156 21.144 4.22266C21.2729 4.09375 21.4311 4.0293 21.6186 4.0293H25.2748C25.3569 4.0293 25.4155 3.98828 25.4506 3.90625C25.5092 3.70703 25.5854 3.44922 25.6791 3.13281C25.6791 3.09766 25.6674 3.06836 25.644 3.04492C25.6323 3.02148 25.6088 3.00977 25.5737 3.00977C24.144 3.05664 22.8549 3.08594 21.7065 3.09766C21.519 3.09766 21.3549 3.03906 21.2143 2.92188C21.0737 2.79297 20.9799 2.63477 20.933 2.44727C20.8979 2.2832 20.9213 2.13672 21.0034 2.00781C21.0971 1.87891 21.226 1.81445 21.3901 1.81445C26.101 1.76758 29.8159 1.53906 32.5346 1.12891C32.6166 1.11719 32.6987 1.11133 32.7807 1.11133C33.1909 1.11133 33.5307 1.27539 33.8002 1.60352C33.9174 1.74414 33.9467 1.89648 33.8881 2.06055C33.8295 2.22461 33.7123 2.31836 33.5366 2.3418C31.9077 2.58789 29.9623 2.77539 27.7006 2.9043C27.6069 2.91602 27.5483 2.96289 27.5248 3.04492C27.478 3.20898 27.3842 3.49609 27.2436 3.90625C27.2319 3.94141 27.2319 3.9707 27.2436 3.99414C27.267 4.01758 27.2963 4.0293 27.3315 4.0293H33.7827C33.9584 4.0293 34.1108 4.09375 34.2397 4.22266C34.3686 4.35156 34.433 4.50977 34.433 4.69727C34.433 4.87305 34.3686 5.02539 34.2397 5.1543C34.1108 5.2832 33.9584 5.34766 33.7827 5.34766H26.8745C26.7924 5.34766 26.7338 5.38867 26.6987 5.4707C26.5815 5.76367 26.4584 6.03906 26.3295 6.29688C26.3178 6.33203 26.3178 6.36133 26.3295 6.38477C26.353 6.4082 26.3823 6.41992 26.4174 6.41992H34.7846C34.9604 6.41992 35.1127 6.48438 35.2416 6.61328ZM50.1212 14.084C50.1212 14.3652 50.0157 14.6113 49.8048 14.8223C49.6055 15.0215 49.3653 15.1211 49.0841 15.1211H47.6954C47.6016 15.1211 47.5548 15.1621 47.5548 15.2441V16.4922C47.5548 16.6562 47.4962 16.791 47.379 16.8965C47.2618 17.0137 47.1212 17.0723 46.9571 17.0723C46.793 17.0723 46.6524 17.0137 46.5352 16.8965C46.4298 16.791 46.377 16.6562 46.377 16.4922V12.8359C46.377 12.6719 46.4298 12.5312 46.5352 12.4141C46.6524 12.2969 46.793 12.2383 46.9571 12.2383C47.1212 12.2383 47.2618 12.2969 47.379 12.4141C47.4962 12.5312 47.5548 12.6719 47.5548 12.8359V13.9961C47.5548 14.0898 47.6016 14.1367 47.6954 14.1367H48.8907C48.9727 14.1367 49.0137 14.0898 49.0137 13.9961V13.082C49.0137 12.9297 49.0665 12.8008 49.172 12.6953C49.2774 12.5781 49.4063 12.5195 49.5587 12.5195C49.711 12.5195 49.8399 12.5781 49.9454 12.6953C50.0626 12.8008 50.1212 12.9297 50.1212 13.082V14.084ZM48.1876 5.92773C48.1876 6.02148 48.2345 6.06836 48.3282 6.06836H51.6856C51.7794 6.06836 51.8262 6.02148 51.8262 5.92773V5.11914C51.8262 5.02539 51.7794 4.97852 51.6856 4.97852H48.3282C48.2345 4.97852 48.1876 5.02539 48.1876 5.11914V5.92773ZM51.8262 2.93945C51.8262 2.8457 51.7794 2.79883 51.6856 2.79883H48.3282C48.2345 2.79883 48.1876 2.8457 48.1876 2.93945V3.7832C48.1876 3.87695 48.2345 3.92383 48.3282 3.92383H51.6856C51.7794 3.92383 51.8262 3.87695 51.8262 3.7832V2.93945ZM40.2423 4.97852C40.1485 4.97852 40.1016 5.02539 40.1016 5.11914V5.92773C40.1016 6.02148 40.1485 6.06836 40.2423 6.06836H43.4942C43.588 6.06836 43.6348 6.02148 43.6348 5.92773V5.11914C43.6348 5.02539 43.588 4.97852 43.4942 4.97852H40.2423ZM43.6348 2.93945C43.6348 2.8457 43.588 2.79883 43.4942 2.79883H40.2423C40.1485 2.79883 40.1016 2.8457 40.1016 2.93945V3.7832C40.1016 3.87695 40.1485 3.92383 40.2423 3.92383H43.4942C43.588 3.92383 43.6348 3.87695 43.6348 3.7832V2.93945ZM52.3887 1.62109C52.67 1.62109 52.9102 1.7207 53.1095 1.91992C53.3204 2.11914 53.4259 2.36523 53.4259 2.6582V15.4199C53.4259 15.877 53.379 16.2285 53.2852 16.4746C53.1915 16.7207 53.0157 16.9082 52.7579 17.0371C52.4298 17.2129 51.8907 17.3125 51.1407 17.3359C51.129 17.3359 51.1173 17.3359 51.1055 17.3359C50.8829 17.3359 50.6837 17.2656 50.5079 17.125C50.3087 16.9609 50.1739 16.7559 50.1036 16.5098C50.0919 16.4512 50.086 16.3926 50.086 16.334C50.086 16.2051 50.127 16.082 50.2091 15.9648C50.3262 15.8008 50.4845 15.7188 50.6837 15.7188C50.9415 15.7305 51.2169 15.7363 51.5098 15.7363C51.627 15.7246 51.7091 15.6953 51.7559 15.6484C51.8028 15.6016 51.8262 15.5195 51.8262 15.4023V7.36914C51.8262 7.27539 51.7794 7.22852 51.6856 7.22852H48.4337C48.422 7.22852 48.4161 7.23438 48.4161 7.24609C48.4981 7.28125 48.5509 7.33984 48.5743 7.42188C48.5977 7.50391 48.5802 7.57422 48.5216 7.63281C48.0997 8.16016 47.7305 8.59961 47.4141 8.95117C47.3555 9.02148 47.3555 9.08594 47.4141 9.14453C47.5196 9.23828 47.6427 9.36133 47.7833 9.51367C47.8419 9.57227 47.9005 9.57227 47.9591 9.51367C48.2637 9.16211 48.4981 8.88672 48.6622 8.6875C48.7442 8.58203 48.8555 8.51172 48.9962 8.47656C49.1485 8.42969 49.2891 8.44141 49.418 8.51172C49.5352 8.55859 49.6055 8.64648 49.629 8.77539C49.6524 8.89258 49.6231 8.99805 49.5411 9.0918C48.92 9.77148 48.3223 10.375 47.7481 10.9023C47.7247 10.9258 47.7188 10.9492 47.7305 10.9727C47.7423 10.9844 47.7598 10.9902 47.7833 10.9902C47.9356 10.9785 48.17 10.9668 48.4864 10.9551C48.8145 10.9316 49.0548 10.9199 49.2071 10.9199C49.2774 10.9082 49.295 10.873 49.2598 10.8145C49.2012 10.709 49.1485 10.6211 49.1016 10.5508C49.043 10.457 49.0313 10.3574 49.0665 10.252C49.1134 10.1348 49.1895 10.0645 49.295 10.041C49.377 10.0059 49.4532 9.98828 49.5235 9.98828C49.7227 9.98828 49.8809 10.082 49.9981 10.2695C50.2911 10.7148 50.5196 11.1367 50.6837 11.5352C50.7305 11.6641 50.7247 11.793 50.6661 11.9219C50.6075 12.0391 50.5079 12.1211 50.3673 12.168C50.2501 12.2148 50.1329 12.209 50.0157 12.1504C49.8985 12.0918 49.8165 12.0039 49.7696 11.8867C49.7696 11.875 49.7637 11.8691 49.752 11.8691C49.752 11.8574 49.752 11.8516 49.752 11.8516C49.7403 11.8047 49.711 11.7871 49.6641 11.7988C49.2305 11.834 48.6153 11.8809 47.8184 11.9395C47.0216 11.9863 46.4591 12.0215 46.1309 12.0449C46.0606 12.0566 46.0137 12.0273 45.9903 11.957C45.9903 11.957 45.9845 11.957 45.9727 11.957L45.1993 12.2383C45.293 12.2383 45.3399 12.2852 45.3399 12.3789V13.8906C45.3399 14.2422 45.3165 14.5527 45.2696 14.8223C45.2227 15.0801 45.129 15.3555 44.9884 15.6484C44.8595 15.9297 44.6544 16.1875 44.3731 16.4219C44.1036 16.668 43.7637 16.8848 43.3536 17.0723C43.1895 17.1426 43.0255 17.1484 42.8614 17.0898C42.6973 17.043 42.5567 16.9434 42.4395 16.791C42.3458 16.6855 42.3165 16.5625 42.3516 16.4219C42.3868 16.293 42.463 16.2051 42.5802 16.1582C43.1544 15.9121 43.5704 15.6016 43.8282 15.2266C43.8516 15.2031 43.8516 15.1797 43.8282 15.1562C43.8165 15.1328 43.7989 15.1211 43.7755 15.1211H42.7032C42.422 15.1211 42.1759 15.0215 41.9649 14.8223C41.7657 14.6113 41.6661 14.3652 41.6661 14.084V13.0645C41.6661 12.9121 41.7188 12.7832 41.8243 12.6777C41.9298 12.5723 42.0587 12.5195 42.211 12.5195C42.3634 12.5195 42.4923 12.5723 42.5977 12.6777C42.7032 12.7832 42.7559 12.9121 42.7559 13.0645V13.9961C42.7559 14.0898 42.797 14.1367 42.879 14.1367H44.0391C44.1329 14.1367 44.1798 14.0898 44.1798 13.9961V13.8555V13.082C44.1798 12.8477 44.2618 12.6484 44.4259 12.4844C44.5899 12.3203 44.7891 12.2383 45.0235 12.2383C45.047 12.2383 45.0645 12.2266 45.0762 12.2031C45.0997 12.1797 45.1055 12.1562 45.0938 12.1328C45.0704 12.0625 45.0411 11.9863 45.0059 11.9043C44.9825 11.8223 44.9239 11.7871 44.8302 11.7988C44.1036 11.8691 43.0372 11.9453 41.6309 12.0273C41.502 12.0391 41.3848 12.0039 41.2794 11.9219C41.1739 11.8281 41.1153 11.7109 41.1036 11.5703C41.0802 11.4414 41.1095 11.3301 41.1915 11.2363C41.2852 11.1309 41.3966 11.0723 41.5255 11.0605L41.9825 11.043C42.0645 11.0312 42.1348 11.002 42.1934 10.9551C42.3692 10.7793 42.5509 10.5977 42.7384 10.4102C42.797 10.3398 42.797 10.2695 42.7384 10.1992C42.4102 9.80078 42.0235 9.42578 41.5782 9.07422C41.4845 8.99219 41.4317 8.89258 41.42 8.77539C41.4083 8.6582 41.4434 8.55859 41.5255 8.47656C41.6192 8.38281 41.7247 8.33008 41.8419 8.31836C41.9708 8.30664 42.088 8.33594 42.1934 8.40625C42.2169 8.41797 42.2345 8.43555 42.2462 8.45898C42.2813 8.48242 42.3106 8.47656 42.3341 8.44141C42.6387 8.01953 42.8848 7.65625 43.0723 7.35156C43.0958 7.32812 43.0958 7.30469 43.0723 7.28125C43.0606 7.24609 43.043 7.22852 43.0196 7.22852H40.2423C40.1485 7.22852 40.1016 7.27539 40.1016 7.36914V16.6152C40.1016 16.8379 40.0255 17.0254 39.8731 17.1777C39.7208 17.3418 39.5333 17.4238 39.3106 17.4238C39.088 17.4238 38.8946 17.3418 38.7305 17.1777C38.5782 17.0254 38.502 16.8379 38.502 16.6152V2.6582C38.502 2.36523 38.6016 2.11914 38.8009 1.91992C39.0118 1.7207 39.2579 1.62109 39.5391 1.62109H44.1622C44.4434 1.62109 44.6837 1.7207 44.8829 1.91992C45.0938 2.11914 45.1993 2.36523 45.1993 2.6582V6.19141C45.1993 6.48438 45.0938 6.73047 44.8829 6.92969C44.6837 7.12891 44.4434 7.22852 44.1622 7.22852H43.9512C43.9512 7.22852 43.9512 7.23438 43.9512 7.24609C44.0333 7.28125 44.086 7.3457 44.1095 7.43945C44.1446 7.5332 44.127 7.62109 44.0567 7.70312C43.6348 8.24219 43.2891 8.65234 43.0196 8.93359C42.961 9.00391 42.961 9.06836 43.0196 9.12695C43.1837 9.29102 43.3067 9.41992 43.3887 9.51367C43.4473 9.57227 43.5059 9.57227 43.5645 9.51367C43.8223 9.19727 44.0509 8.91016 44.2501 8.65234C44.3438 8.54688 44.461 8.47656 44.6016 8.44141C44.7423 8.39453 44.877 8.40039 45.0059 8.45898C45.1231 8.51758 45.1934 8.61133 45.2169 8.74023C45.2403 8.85742 45.211 8.95703 45.129 9.03906C44.4376 9.8125 43.8516 10.4277 43.3712 10.8848C43.3477 10.9082 43.3419 10.9316 43.3536 10.9551C43.3653 10.9668 43.3829 10.9727 43.4063 10.9727L44.461 10.9023C44.5196 10.9023 44.5372 10.8789 44.5137 10.832C44.4786 10.7734 44.4434 10.709 44.4083 10.6387C44.3497 10.5449 44.338 10.4453 44.3731 10.3398C44.42 10.2344 44.4962 10.1641 44.6016 10.1289C44.672 10.1055 44.7423 10.0938 44.8126 10.0938C45.0001 10.0938 45.1524 10.1816 45.2696 10.3574C45.5274 10.7559 45.7384 11.1484 45.9024 11.5352C45.879 11.418 45.9024 11.3125 45.9727 11.2188C46.043 11.125 46.1368 11.0723 46.254 11.0605H46.3419C46.3887 11.0488 46.4298 11.0312 46.4649 11.0078C46.5352 10.9492 46.7403 10.7559 47.0802 10.4277C47.1505 10.3574 47.1563 10.293 47.0977 10.2344C46.7696 9.83594 46.3653 9.4375 45.8848 9.03906C45.7911 8.95703 45.7384 8.85742 45.7266 8.74023C45.7266 8.62305 45.7677 8.51758 45.8497 8.42383C45.9552 8.33008 46.0723 8.2832 46.2012 8.2832C46.3302 8.27148 46.4473 8.30664 46.5528 8.38867C46.5762 8.41211 46.5997 8.42969 46.6231 8.44141C46.6583 8.47656 46.6876 8.47656 46.711 8.44141C47.0274 7.98438 47.2735 7.60938 47.4493 7.31641C47.461 7.30469 47.461 7.28711 47.4493 7.26367C47.4376 7.24023 47.42 7.22852 47.3966 7.22852C47.1856 7.22852 46.9981 7.15234 46.8341 7C46.6817 6.84766 46.6055 6.66016 46.6055 6.4375V2.6582C46.6055 2.36523 46.7052 2.11914 46.9044 1.91992C47.1036 1.7207 47.3497 1.62109 47.6427 1.62109H52.3887ZM72.1023 7.58008C72.2663 7.74414 72.3484 7.94336 72.3484 8.17773C72.3484 8.40039 72.2663 8.59375 72.1023 8.75781C71.9382 8.92188 71.7448 9.00391 71.5222 9.00391H64.9128C64.8308 9.00391 64.7898 9.04492 64.7898 9.12695V10.7266C64.7898 10.7383 64.7898 10.7441 64.7898 10.7441C64.8015 10.7441 64.8132 10.7383 64.8249 10.7266C64.9187 10.5859 65.0417 10.4863 65.1941 10.4277C65.3581 10.3574 65.5222 10.3457 65.6862 10.3926C67.4441 10.9082 68.9968 11.4414 70.3445 11.9922C70.5554 12.0859 70.696 12.2441 70.7663 12.4668C70.7898 12.5488 70.8015 12.6309 70.8015 12.7129C70.8015 12.8418 70.7663 12.9707 70.696 13.0996C70.5788 13.3105 70.3972 13.4512 70.1511 13.5215C70.0573 13.5566 69.9636 13.5742 69.8698 13.5742C69.7292 13.5742 69.5945 13.5449 69.4655 13.4863C68.1648 12.9004 66.6472 12.3262 64.9128 11.7637C64.8777 11.752 64.8484 11.7578 64.8249 11.7812C64.8015 11.793 64.7898 11.8164 64.7898 11.8516V16.5273C64.7898 16.7617 64.7019 16.9668 64.5261 17.1426C64.3503 17.3184 64.1394 17.4062 63.8933 17.4062C63.6589 17.4062 63.4538 17.3184 63.278 17.1426C63.1023 16.9668 63.0144 16.7617 63.0144 16.5273V9.12695C63.0144 9.04492 62.9734 9.00391 62.8913 9.00391H57.0905C56.8679 9.00391 56.6745 8.92188 56.5105 8.75781C56.3464 8.59375 56.2644 8.40039 56.2644 8.17773C56.2644 7.94336 56.3464 7.74414 56.5105 7.58008C56.6745 7.41602 56.8679 7.33398 57.0905 7.33398H62.8913C62.9734 7.33398 63.0144 7.29297 63.0144 7.21094V1.7793C63.0144 1.5332 63.1023 1.32813 63.278 1.16406C63.4538 0.988281 63.6589 0.900391 63.8933 0.900391C64.1394 0.900391 64.3503 0.988281 64.5261 1.16406C64.7019 1.32813 64.7898 1.5332 64.7898 1.7793V3.16797C64.7898 3.25 64.8308 3.29102 64.9128 3.29102H69.6062C69.8171 3.29102 69.9987 3.37305 70.1511 3.53711C70.3152 3.68945 70.3972 3.87695 70.3972 4.09961C70.3972 4.31055 70.3152 4.49805 70.1511 4.66211C69.9987 4.81445 69.8171 4.89062 69.6062 4.89062H64.9128C64.8308 4.89062 64.7898 4.9375 64.7898 5.03125V7.21094C64.7898 7.29297 64.8308 7.33398 64.9128 7.33398H71.5222C71.7448 7.33398 71.9382 7.41602 72.1023 7.58008ZM75.1166 11.8867C75.14 11.6992 75.2279 11.5469 75.3802 11.4297C75.5443 11.3125 75.7259 11.2715 75.9252 11.3066C76.1244 11.3418 76.2826 11.4414 76.3998 11.6055C76.4935 11.7344 76.5404 11.875 76.5404 12.0273C76.5404 12.0625 76.5345 12.1035 76.5228 12.1504C76.3236 13.416 76.0599 14.4824 75.7318 15.3496C75.6732 15.5254 75.5502 15.6426 75.3627 15.7012C75.1752 15.7598 74.9994 15.748 74.8353 15.666C74.6595 15.584 74.5365 15.4551 74.4662 15.2793C74.3959 15.1035 74.3959 14.9219 74.4662 14.7344C74.7474 13.9609 74.9642 13.0117 75.1166 11.8867ZM79.388 12.1504C79.3295 11.9746 79.3353 11.8047 79.4056 11.6406C79.4877 11.4766 79.6166 11.3652 79.7923 11.3066C79.9681 11.248 80.1439 11.2598 80.3197 11.3418C80.4955 11.4238 80.6185 11.5527 80.6888 11.7285C80.9818 12.4668 81.2279 13.1758 81.4271 13.8555C81.4388 13.9258 81.4447 13.9961 81.4447 14.0664C81.4447 14.1836 81.4154 14.3008 81.3568 14.418C81.263 14.5938 81.1224 14.7168 80.9349 14.7871C80.7591 14.8457 80.5892 14.834 80.4252 14.752C80.2611 14.6582 80.1556 14.5176 80.1087 14.3301C79.9447 13.709 79.7045 12.9824 79.388 12.1504ZM86.7181 14.541C86.7181 14.623 86.765 14.6641 86.8587 14.6641H88.6693C88.7513 14.6641 88.7923 14.623 88.7923 14.541V10.0762C88.7923 9.99414 88.7513 9.95312 88.6693 9.95312H86.8587C86.765 9.95312 86.7181 9.99414 86.7181 10.0762V14.541ZM83.431 9.95312C83.349 9.95312 83.308 9.99414 83.308 10.0762V14.541C83.308 14.623 83.349 14.6641 83.431 14.6641H85.1185C85.2005 14.6641 85.2416 14.623 85.2416 14.541V10.0762C85.2416 9.99414 85.2005 9.95312 85.1185 9.95312H83.431ZM85.2416 3.97656C85.2416 3.89453 85.2005 3.85352 85.1185 3.85352H83.431C83.349 3.85352 83.308 3.89453 83.308 3.97656V8.2832C83.308 8.37695 83.349 8.42383 83.431 8.42383H85.1185C85.2005 8.42383 85.2416 8.37695 85.2416 8.2832V3.97656ZM88.6693 8.42383C88.7513 8.42383 88.7923 8.37695 88.7923 8.2832V3.97656C88.7923 3.89453 88.7513 3.85352 88.6693 3.85352H86.8587C86.765 3.85352 86.7181 3.89453 86.7181 3.97656V8.2832C86.7181 8.37695 86.765 8.42383 86.8587 8.42383H88.6693ZM81.7962 3.32617C81.7962 3.0332 81.8959 2.78711 82.0951 2.58789C82.2943 2.38867 82.5404 2.28906 82.8334 2.28906H89.3197C89.6127 2.28906 89.8587 2.38867 90.058 2.58789C90.2572 2.78711 90.3568 3.0332 90.3568 3.32617V16.2461C90.3568 16.457 90.2806 16.6387 90.1283 16.791C89.9759 16.9434 89.7943 17.0195 89.5834 17.0195H89.513C89.3138 17.0195 89.1439 16.9492 89.0033 16.8086C88.8627 16.668 88.7923 16.498 88.7923 16.2988C88.7923 16.2402 88.763 16.2109 88.7045 16.2109H83.4134C83.3431 16.2109 83.308 16.2461 83.308 16.3164V16.4219C83.308 16.6211 83.2318 16.7969 83.0795 16.9492C82.9388 17.1016 82.763 17.1777 82.5521 17.1777C82.3412 17.1777 82.1595 17.1016 82.0072 16.9492C81.8666 16.7969 81.7962 16.6211 81.7962 16.4219V10.4629C81.7962 10.4277 81.7787 10.4043 81.7435 10.3926C81.7201 10.3809 81.6966 10.3809 81.6732 10.3926L81.4798 10.4805C81.3627 10.5391 81.2396 10.5684 81.1107 10.5684C80.9935 10.5684 80.8705 10.5391 80.7416 10.4805C80.4955 10.375 80.3255 10.1934 80.2318 9.93555C80.2201 9.88867 80.2025 9.8418 80.1791 9.79492C80.1556 9.71289 80.097 9.67188 80.0033 9.67188L78.8783 9.79492C78.7962 9.80664 78.7552 9.85352 78.7552 9.93555V16.6328C78.7552 16.8438 78.6791 17.0195 78.5267 17.1602C78.3861 17.3125 78.2103 17.3887 77.9994 17.3887C77.8002 17.3887 77.6244 17.3125 77.472 17.1602C77.3314 17.0195 77.2611 16.8438 77.2611 16.6328V10.0762C77.2611 9.99414 77.2142 9.95898 77.1205 9.9707C76.4994 10.0293 75.8666 10.0879 75.222 10.1465C75.1986 10.1582 75.1693 10.1641 75.1341 10.1641C74.9584 10.1641 74.8002 10.1055 74.6595 9.98828C74.4955 9.85938 74.3959 9.68945 74.3607 9.47852C74.3607 9.44336 74.3607 9.4082 74.3607 9.37305C74.3607 9.20898 74.4076 9.0625 74.5013 8.93359C74.6302 8.78125 74.8002 8.69922 75.0111 8.6875C75.0814 8.67578 75.2572 8.66406 75.5384 8.65234C75.6322 8.64062 75.7025 8.59961 75.7494 8.5293C75.972 8.25977 76.2357 7.91992 76.5404 7.50977C76.5873 7.42773 76.5873 7.35156 76.5404 7.28125C76.1185 6.69531 75.5443 6.03906 74.8177 5.3125C74.6537 5.16016 74.5716 4.9668 74.5716 4.73242C74.5716 4.56836 74.6244 4.41602 74.7298 4.27539L74.7826 4.20508C74.8763 4.07617 74.9994 4.00586 75.1517 3.99414C75.3158 3.9707 75.4564 4.01172 75.5736 4.11719C75.6205 4.15234 75.6556 4.14648 75.6791 4.09961C76.1127 3.29102 76.4994 2.46484 76.8392 1.62109C76.933 1.42187 77.0795 1.27539 77.2787 1.18164C77.3841 1.13477 77.4896 1.11133 77.5951 1.11133C77.6888 1.11133 77.7826 1.12891 77.8763 1.16406C78.0755 1.24609 78.2103 1.38672 78.2806 1.58594C78.3158 1.66797 78.3334 1.75 78.3334 1.83203C78.3334 1.94922 78.3041 2.06055 78.2455 2.16602C77.5892 3.38477 77.056 4.32227 76.6459 4.97852C76.599 5.04883 76.6048 5.11914 76.6634 5.18945C76.9447 5.48242 77.1849 5.76367 77.3841 6.0332C77.431 6.10352 77.4779 6.10352 77.5248 6.0332C78.0521 5.22461 78.5267 4.43945 78.9486 3.67773C79.0541 3.49023 79.2064 3.36133 79.4056 3.29102C79.4994 3.25586 79.5873 3.23828 79.6693 3.23828C79.7865 3.23828 79.8978 3.26758 80.0033 3.32617C80.1908 3.4082 80.3138 3.54883 80.3724 3.74805C80.3959 3.81836 80.4076 3.88281 80.4076 3.94141C80.4076 4.07031 80.3666 4.19336 80.2845 4.31055C79.2884 5.83398 78.3041 7.20508 77.3314 8.42383C77.3197 8.44727 77.3197 8.4707 77.3314 8.49414C77.3431 8.51758 77.3607 8.5293 77.3841 8.5293L79.4056 8.37109C79.4408 8.37109 79.4642 8.35938 79.4759 8.33594C79.4994 8.3125 79.4994 8.2832 79.4759 8.24805C79.3822 8.07227 79.2826 7.89648 79.1771 7.7207C79.0951 7.55664 79.0775 7.39258 79.1244 7.22852C79.183 7.05273 79.2943 6.92969 79.4584 6.85938C79.6341 6.77734 79.8158 6.76562 80.0033 6.82422C80.1908 6.88281 80.3373 6.99414 80.4427 7.1582C81.0404 8.16602 81.474 9.06836 81.7435 9.86523C81.7552 9.87695 81.767 9.88281 81.7787 9.88281C81.7904 9.88281 81.7962 9.87109 81.7962 9.84766V3.32617ZM99.0312 7.42188C99.0312 7.32812 98.9902 7.28125 98.9082 7.28125H95.7793C95.6973 7.28125 95.6562 7.32812 95.6562 7.42188V8.2832C95.6562 8.37695 95.6973 8.42383 95.7793 8.42383H98.9082C98.9902 8.42383 99.0312 8.37695 99.0312 8.2832V7.42188ZM95.6562 10.7266C95.6562 10.8086 95.6973 10.8496 95.7793 10.8496H98.9082C98.9902 10.8496 99.0312 10.8086 99.0312 10.7266V9.77734C99.0312 9.69531 98.9902 9.6543 98.9082 9.6543H95.7793C95.6973 9.6543 95.6562 9.69531 95.6562 9.77734V10.7266ZM97.9766 13.5391C97.8711 13.3984 97.8359 13.2402 97.8711 13.0645C97.9062 12.8887 98.0059 12.7598 98.1699 12.6777C98.2988 12.6074 98.4336 12.5723 98.5742 12.5723C98.6328 12.5723 98.6973 12.5781 98.7676 12.5898C98.9668 12.6367 99.1367 12.7422 99.2773 12.9062C99.9922 13.7734 100.584 14.6465 101.053 15.5254C101.111 15.6426 101.141 15.7598 101.141 15.877C101.141 15.959 101.129 16.041 101.105 16.123C101.035 16.334 100.9 16.4922 100.701 16.5977C100.596 16.6445 100.484 16.668 100.367 16.668C100.285 16.668 100.203 16.6562 100.121 16.6328C99.9336 16.5625 99.793 16.4336 99.6992 16.2461C99.6289 16.1055 99.5586 15.9648 99.4883 15.8242C99.4414 15.7539 99.377 15.7246 99.2949 15.7363C97.877 15.9824 96.0312 16.2812 93.7578 16.6328C93.7227 16.6328 93.6816 16.6328 93.6348 16.6328C93.4824 16.6328 93.3359 16.5859 93.1953 16.4922C93.0312 16.375 92.9316 16.2109 92.8965 16C92.8848 15.9531 92.8789 15.9062 92.8789 15.8594C92.8789 15.7188 92.9258 15.584 93.0195 15.4551C93.1367 15.291 93.2949 15.1914 93.4941 15.1562L93.9688 15.1035C94.0625 15.0918 94.1094 15.0391 94.1094 14.9453V7.03516C94.1094 6.74219 94.209 6.49609 94.4082 6.29688C94.6074 6.09766 94.8535 5.99805 95.1465 5.99805H99.5586C99.8516 5.99805 100.098 6.09766 100.297 6.29688C100.496 6.49609 100.596 6.74219 100.596 7.03516V11.0957C100.596 11.377 100.496 11.623 100.297 11.834C100.098 12.0332 99.8516 12.1328 99.5586 12.1328H95.7793C95.6973 12.1328 95.6562 12.1738 95.6562 12.2559V14.7168C95.6562 14.7988 95.6973 14.834 95.7793 14.8223C96.0957 14.7871 96.5586 14.7227 97.168 14.6289C97.7773 14.5352 98.2168 14.4707 98.4863 14.4355C98.5215 14.4355 98.5449 14.4238 98.5566 14.4004C98.5684 14.3652 98.5625 14.3359 98.5391 14.3125C98.3281 14.0078 98.1406 13.75 97.9766 13.5391ZM107.434 5.99805C107.715 5.99805 107.955 6.09766 108.154 6.29688C108.365 6.49609 108.471 6.74219 108.471 7.03516V13.5039C108.471 13.9258 108.412 14.2598 108.295 14.5059C108.189 14.7402 107.99 14.9219 107.697 15.0508C107.311 15.2148 106.637 15.3027 105.676 15.3145C105.664 15.3145 105.658 15.3145 105.658 15.3145C105.424 15.3145 105.219 15.2383 105.043 15.0859C104.855 14.9453 104.727 14.7578 104.656 14.5234C104.598 14.3359 104.621 14.166 104.727 14.0137C104.832 13.8613 104.979 13.7852 105.166 13.7852C105.588 13.7852 106.033 13.7852 106.502 13.7852C106.643 13.7734 106.736 13.75 106.783 13.7148C106.83 13.668 106.854 13.5918 106.854 13.4863V7.63281C106.854 7.55078 106.807 7.50977 106.713 7.50977H103.637C103.543 7.50977 103.496 7.55078 103.496 7.63281V16.4746C103.496 16.6973 103.42 16.8848 103.268 17.0371C103.115 17.1895 102.928 17.2656 102.705 17.2656C102.494 17.2656 102.312 17.1895 102.16 17.0371C102.008 16.8848 101.932 16.6973 101.932 16.4746V7.03516C101.932 6.74219 102.031 6.49609 102.23 6.29688C102.441 6.09766 102.688 5.99805 102.969 5.99805H107.434ZM103.531 2.28906C103.52 2.32422 103.52 2.35352 103.531 2.37695C103.543 2.40039 103.566 2.41211 103.602 2.41211H108.383C108.559 2.41211 108.711 2.47656 108.84 2.60547C108.969 2.72266 109.033 2.86914 109.033 3.04492C109.033 3.2207 108.969 3.37305 108.84 3.50195C108.711 3.63086 108.559 3.69531 108.383 3.69531H105.658C105.623 3.69531 105.6 3.70703 105.588 3.73047C105.576 3.75391 105.576 3.77734 105.588 3.80078C105.799 4.09375 105.986 4.375 106.15 4.64453C106.209 4.75 106.238 4.86133 106.238 4.97852C106.238 5.06055 106.221 5.14258 106.186 5.22461C106.115 5.41211 105.98 5.54688 105.781 5.62891C105.688 5.66406 105.594 5.68164 105.5 5.68164C105.395 5.68164 105.289 5.6582 105.184 5.61133C104.984 5.5293 104.832 5.38867 104.727 5.18945C104.48 4.74414 104.176 4.28125 103.812 3.80078C103.766 3.73047 103.695 3.69531 103.602 3.69531H102.846C102.752 3.69531 102.682 3.73047 102.635 3.80078C102.295 4.29297 101.926 4.75 101.527 5.17188C101.375 5.34766 101.176 5.44141 100.93 5.45312C100.918 5.45312 100.9 5.45312 100.877 5.45312C100.654 5.45312 100.455 5.38867 100.279 5.25977C100.104 5.13086 100.016 4.94922 100.016 4.71484C100.016 4.55078 100.074 4.4043 100.191 4.27539C100.344 4.12305 100.496 3.95898 100.648 3.7832C100.66 3.77148 100.66 3.75391 100.648 3.73047C100.637 3.70703 100.619 3.69531 100.596 3.69531H97.8535C97.8301 3.69531 97.8066 3.70703 97.7832 3.73047C97.7715 3.75391 97.7715 3.77734 97.7832 3.80078C97.9121 4.04688 98.0352 4.29883 98.1523 4.55664C98.1875 4.65039 98.2051 4.74414 98.2051 4.83789C98.2051 4.94336 98.1816 5.04297 98.1348 5.13672C98.0527 5.33594 97.9121 5.47656 97.7129 5.55859C97.6191 5.59375 97.5312 5.61133 97.4492 5.61133C97.3438 5.61133 97.2441 5.58789 97.1504 5.54102C96.9629 5.45898 96.834 5.32422 96.7637 5.13672C96.5996 4.70312 96.4004 4.25781 96.166 3.80078C96.1309 3.73047 96.0664 3.69531 95.9727 3.69531H95.7617C95.6797 3.69531 95.6152 3.73047 95.5684 3.80078C95.252 4.30469 94.9238 4.76172 94.584 5.17188C94.4316 5.34766 94.2383 5.44727 94.0039 5.4707C93.9688 5.48242 93.9336 5.48828 93.8984 5.48828C93.6992 5.48828 93.5176 5.42969 93.3535 5.3125C93.1543 5.18359 93.0547 4.99609 93.0547 4.75C93.0547 4.57422 93.1133 4.42188 93.2305 4.29297C93.9219 3.53125 94.5078 2.61719 94.9883 1.55078C95.082 1.33984 95.2344 1.18164 95.4453 1.07617C95.5742 1.00586 95.709 0.970703 95.8496 0.970703C95.9316 0.970703 96.0078 0.976563 96.0781 0.988281C96.2891 1.04688 96.4473 1.17578 96.5527 1.375C96.5996 1.46875 96.623 1.56836 96.623 1.67383C96.623 1.76758 96.5996 1.86133 96.5527 1.95508C96.5059 2.07227 96.4531 2.18359 96.3945 2.28906C96.3828 2.3125 96.3828 2.3418 96.3945 2.37695C96.418 2.40039 96.4414 2.41211 96.4648 2.41211H99.7168C99.998 2.41211 100.238 2.51172 100.438 2.71094C100.648 2.91016 100.754 3.15625 100.754 3.44922V3.53711C100.754 3.56055 100.76 3.57812 100.771 3.58984C100.795 3.58984 100.812 3.58398 100.824 3.57227C101.34 2.95117 101.768 2.27734 102.107 1.55078C102.213 1.33984 102.365 1.18164 102.564 1.07617C102.705 0.994141 102.852 0.953125 103.004 0.953125C103.074 0.953125 103.145 0.964844 103.215 0.988281C103.438 1.03516 103.596 1.1582 103.689 1.35742C103.736 1.46289 103.76 1.5625 103.76 1.65625C103.76 1.75 103.742 1.84375 103.707 1.9375C103.648 2.06641 103.59 2.18359 103.531 2.28906Z" fill="white"/>
</svg>
