<svg width="158" height="37" viewBox="0 0 158 37" fill="none" xmlns="http://www.w3.org/2000/svg">
<rect width="158" height="37" rx="18.5" fill="#FF5136"/>
<path d="M29.51 21.094H36.8V22.588H29.51V21.094ZM29.51 18.664H36.8V20.14H29.51V18.664ZM28.178 17.692V23.56H38.186V17.692H28.178ZM25.226 12.184V13.372H41.192V12.184H25.226ZM32.462 9.88V17.134H33.812V9.88H32.462ZM31.688 12.526C30.248 14.542 27.422 16.486 24.83 17.368C25.118 17.638 25.514 18.124 25.712 18.448C28.358 17.404 31.202 15.298 32.822 12.976L31.688 12.526ZM34.55 12.544L33.452 12.976C35.09 15.244 37.97 17.314 40.652 18.322C40.85 17.962 41.246 17.458 41.552 17.206C38.888 16.36 36.008 14.506 34.55 12.544ZM25.514 24.658V25.864H40.94V24.658H25.514ZM55.9018 20.1133C55.9955 20.1133 56.0424 20.0723 56.0424 19.9902V19.2344C56.0424 19.1406 55.9955 19.0938 55.9018 19.0938H48.976C48.8823 19.0938 48.8354 19.1406 48.8354 19.2344V19.9902C48.8354 20.0723 48.8823 20.1133 48.976 20.1133H55.9018ZM48.8354 24.3496C48.8354 24.4316 48.8823 24.4727 48.976 24.4727H55.9018C55.9955 24.4727 56.0424 24.4316 56.0424 24.3496V23.5059C56.0424 23.4238 55.9955 23.3828 55.9018 23.3828H48.976C48.8823 23.3828 48.8354 23.4238 48.8354 23.5059V24.3496ZM48.976 21.2383C48.8823 21.2383 48.8354 21.2793 48.8354 21.3613V22.1348C48.8354 22.2168 48.8823 22.2578 48.976 22.2578H55.9018C55.9955 22.2578 56.0424 22.2168 56.0424 22.1348V21.3613C56.0424 21.2793 55.9955 21.2383 55.9018 21.2383H48.976ZM59.2416 15.6133C59.3823 15.7422 59.4526 15.9004 59.4526 16.0879C59.4526 16.2754 59.3823 16.4336 59.2416 16.5625C59.1127 16.6914 58.9604 16.7559 58.7846 16.7559H49.767C49.6733 16.7559 49.6088 16.7969 49.5737 16.8789C49.3627 17.2656 49.2104 17.5352 49.1166 17.6875C49.0932 17.7109 49.0873 17.7344 49.0991 17.7578C49.1225 17.7812 49.1459 17.793 49.1694 17.793H56.6752C56.9682 17.793 57.2143 17.8984 57.4135 18.1094C57.6127 18.3086 57.7123 18.5488 57.7123 18.8301V25.6328C57.7123 25.8672 57.6303 26.0664 57.4662 26.2305C57.3022 26.3945 57.1088 26.4766 56.8862 26.4766H56.6401C56.476 26.4766 56.3354 26.418 56.2182 26.3008C56.101 26.1836 56.0424 26.0371 56.0424 25.8613C56.0424 25.8145 56.019 25.791 55.9721 25.791H48.9233C48.8647 25.791 48.8354 25.8145 48.8354 25.8613C48.8354 26.0371 48.7768 26.1836 48.6596 26.3008C48.5424 26.418 48.4018 26.4766 48.2377 26.4766H48.0444C47.8217 26.4766 47.6284 26.3945 47.4643 26.2305C47.312 26.0781 47.2358 25.8906 47.2358 25.668V20.2891C47.2358 20.2656 47.2241 20.2539 47.2006 20.2539C47.1772 20.2422 47.1596 20.2422 47.1479 20.2539C46.4565 20.9688 45.7182 21.5957 44.933 22.1348C44.7924 22.2168 44.6459 22.2578 44.4936 22.2578C44.4233 22.2578 44.3588 22.252 44.3002 22.2402C44.0776 22.1816 43.8901 22.0586 43.7377 21.8711C43.6323 21.7422 43.5795 21.5957 43.5795 21.4316C43.5795 21.3965 43.5854 21.3555 43.5971 21.3086C43.6205 21.0977 43.7202 20.9336 43.8959 20.8164C45.3959 19.832 46.6498 18.5137 47.6577 16.8613C47.6694 16.8379 47.6694 16.8145 47.6577 16.791C47.6459 16.7676 47.6225 16.7559 47.5873 16.7559H44.3354C44.1596 16.7559 44.0014 16.6914 43.8608 16.5625C43.7319 16.4336 43.6674 16.2754 43.6674 16.0879C43.6674 15.9004 43.7319 15.7422 43.8608 15.6133C44.0014 15.4844 44.1596 15.4199 44.3354 15.4199H48.308C48.4018 15.4199 48.4662 15.3848 48.5014 15.3145C48.5834 15.1504 48.7123 14.8691 48.8881 14.4707C48.9116 14.4355 48.9116 14.4062 48.8881 14.3828C48.8764 14.3594 48.853 14.3477 48.8178 14.3477H45.6186C45.4311 14.3477 45.2729 14.2832 45.144 14.1543C45.0151 14.0254 44.9506 13.873 44.9506 13.6973C44.9506 13.5098 45.0151 13.3516 45.144 13.2227C45.2729 13.0938 45.4311 13.0293 45.6186 13.0293H49.2748C49.3569 13.0293 49.4155 12.9883 49.4506 12.9062C49.5092 12.707 49.5854 12.4492 49.6791 12.1328C49.6791 12.0977 49.6674 12.0684 49.644 12.0449C49.6323 12.0215 49.6088 12.0098 49.5737 12.0098C48.144 12.0566 46.8549 12.0859 45.7065 12.0977C45.519 12.0977 45.3549 12.0391 45.2143 11.9219C45.0737 11.793 44.9799 11.6348 44.933 11.4473C44.8979 11.2832 44.9213 11.1367 45.0034 11.0078C45.0971 10.8789 45.226 10.8145 45.3901 10.8145C50.101 10.7676 53.8159 10.5391 56.5346 10.1289C56.6166 10.1172 56.6987 10.1113 56.7807 10.1113C57.1909 10.1113 57.5307 10.2754 57.8002 10.6035C57.9174 10.7441 57.9467 10.8965 57.8881 11.0605C57.8295 11.2246 57.7123 11.3184 57.5366 11.3418C55.9077 11.5879 53.9623 11.7754 51.7006 11.9043C51.6069 11.916 51.5483 11.9629 51.5248 12.0449C51.478 12.209 51.3842 12.4961 51.2436 12.9062C51.2319 12.9414 51.2319 12.9707 51.2436 12.9941C51.267 13.0176 51.2963 13.0293 51.3315 13.0293H57.7827C57.9584 13.0293 58.1108 13.0938 58.2397 13.2227C58.3686 13.3516 58.433 13.5098 58.433 13.6973C58.433 13.873 58.3686 14.0254 58.2397 14.1543C58.1108 14.2832 57.9584 14.3477 57.7827 14.3477H50.8745C50.7924 14.3477 50.7338 14.3887 50.6987 14.4707C50.5815 14.7637 50.4584 15.0391 50.3295 15.2969C50.3178 15.332 50.3178 15.3613 50.3295 15.3848C50.353 15.4082 50.3823 15.4199 50.4174 15.4199H58.7846C58.9604 15.4199 59.1127 15.4844 59.2416 15.6133ZM74.1212 23.084C74.1212 23.3652 74.0157 23.6113 73.8048 23.8223C73.6055 24.0215 73.3653 24.1211 73.0841 24.1211H71.6954C71.6016 24.1211 71.5548 24.1621 71.5548 24.2441V25.4922C71.5548 25.6562 71.4962 25.791 71.379 25.8965C71.2618 26.0137 71.1212 26.0723 70.9571 26.0723C70.793 26.0723 70.6524 26.0137 70.5352 25.8965C70.4298 25.791 70.377 25.6562 70.377 25.4922V21.8359C70.377 21.6719 70.4298 21.5312 70.5352 21.4141C70.6524 21.2969 70.793 21.2383 70.9571 21.2383C71.1212 21.2383 71.2618 21.2969 71.379 21.4141C71.4962 21.5312 71.5548 21.6719 71.5548 21.8359V22.9961C71.5548 23.0898 71.6016 23.1367 71.6954 23.1367H72.8907C72.9727 23.1367 73.0137 23.0898 73.0137 22.9961V22.082C73.0137 21.9297 73.0665 21.8008 73.172 21.6953C73.2774 21.5781 73.4063 21.5195 73.5587 21.5195C73.711 21.5195 73.8399 21.5781 73.9454 21.6953C74.0626 21.8008 74.1212 21.9297 74.1212 22.082V23.084ZM72.1876 14.9277C72.1876 15.0215 72.2345 15.0684 72.3282 15.0684H75.6856C75.7794 15.0684 75.8262 15.0215 75.8262 14.9277V14.1191C75.8262 14.0254 75.7794 13.9785 75.6856 13.9785H72.3282C72.2345 13.9785 72.1876 14.0254 72.1876 14.1191V14.9277ZM75.8262 11.9395C75.8262 11.8457 75.7794 11.7988 75.6856 11.7988H72.3282C72.2345 11.7988 72.1876 11.8457 72.1876 11.9395V12.7832C72.1876 12.877 72.2345 12.9238 72.3282 12.9238H75.6856C75.7794 12.9238 75.8262 12.877 75.8262 12.7832V11.9395ZM64.2423 13.9785C64.1485 13.9785 64.1016 14.0254 64.1016 14.1191V14.9277C64.1016 15.0215 64.1485 15.0684 64.2423 15.0684H67.4942C67.588 15.0684 67.6348 15.0215 67.6348 14.9277V14.1191C67.6348 14.0254 67.588 13.9785 67.4942 13.9785H64.2423ZM67.6348 11.9395C67.6348 11.8457 67.588 11.7988 67.4942 11.7988H64.2423C64.1485 11.7988 64.1016 11.8457 64.1016 11.9395V12.7832C64.1016 12.877 64.1485 12.9238 64.2423 12.9238H67.4942C67.588 12.9238 67.6348 12.877 67.6348 12.7832V11.9395ZM76.3887 10.6211C76.67 10.6211 76.9102 10.7207 77.1095 10.9199C77.3204 11.1191 77.4259 11.3652 77.4259 11.6582V24.4199C77.4259 24.877 77.379 25.2285 77.2852 25.4746C77.1915 25.7207 77.0157 25.9082 76.7579 26.0371C76.4298 26.2129 75.8907 26.3125 75.1407 26.3359C75.129 26.3359 75.1173 26.3359 75.1055 26.3359C74.8829 26.3359 74.6837 26.2656 74.5079 26.125C74.3087 25.9609 74.1739 25.7559 74.1036 25.5098C74.0919 25.4512 74.086 25.3926 74.086 25.334C74.086 25.2051 74.127 25.082 74.2091 24.9648C74.3262 24.8008 74.4845 24.7188 74.6837 24.7188C74.9415 24.7305 75.2169 24.7363 75.5098 24.7363C75.627 24.7246 75.7091 24.6953 75.7559 24.6484C75.8028 24.6016 75.8262 24.5195 75.8262 24.4023V16.3691C75.8262 16.2754 75.7794 16.2285 75.6856 16.2285H72.4337C72.422 16.2285 72.4161 16.2344 72.4161 16.2461C72.4981 16.2812 72.5509 16.3398 72.5743 16.4219C72.5977 16.5039 72.5802 16.5742 72.5216 16.6328C72.0997 17.1602 71.7305 17.5996 71.4141 17.9512C71.3555 18.0215 71.3555 18.0859 71.4141 18.1445C71.5196 18.2383 71.6427 18.3613 71.7833 18.5137C71.8419 18.5723 71.9005 18.5723 71.9591 18.5137C72.2637 18.1621 72.4981 17.8867 72.6622 17.6875C72.7442 17.582 72.8555 17.5117 72.9962 17.4766C73.1485 17.4297 73.2891 17.4414 73.418 17.5117C73.5352 17.5586 73.6055 17.6465 73.629 17.7754C73.6524 17.8926 73.6231 17.998 73.5411 18.0918C72.92 18.7715 72.3223 19.375 71.7481 19.9023C71.7247 19.9258 71.7188 19.9492 71.7305 19.9727C71.7423 19.9844 71.7598 19.9902 71.7833 19.9902C71.9356 19.9785 72.17 19.9668 72.4864 19.9551C72.8145 19.9316 73.0548 19.9199 73.2071 19.9199C73.2774 19.9082 73.295 19.873 73.2598 19.8145C73.2012 19.709 73.1485 19.6211 73.1016 19.5508C73.043 19.457 73.0313 19.3574 73.0665 19.252C73.1134 19.1348 73.1895 19.0645 73.295 19.041C73.377 19.0059 73.4532 18.9883 73.5235 18.9883C73.7227 18.9883 73.8809 19.082 73.9981 19.2695C74.2911 19.7148 74.5196 20.1367 74.6837 20.5352C74.7305 20.6641 74.7247 20.793 74.6661 20.9219C74.6075 21.0391 74.5079 21.1211 74.3673 21.168C74.2501 21.2148 74.1329 21.209 74.0157 21.1504C73.8985 21.0918 73.8165 21.0039 73.7696 20.8867C73.7696 20.875 73.7637 20.8691 73.752 20.8691C73.752 20.8574 73.752 20.8516 73.752 20.8516C73.7403 20.8047 73.711 20.7871 73.6641 20.7988C73.2305 20.834 72.6153 20.8809 71.8184 20.9395C71.0216 20.9863 70.4591 21.0215 70.1309 21.0449C70.0606 21.0566 70.0137 21.0273 69.9903 20.957C69.9903 20.957 69.9845 20.957 69.9727 20.957L69.1993 21.2383C69.293 21.2383 69.3399 21.2852 69.3399 21.3789V22.8906C69.3399 23.2422 69.3165 23.5527 69.2696 23.8223C69.2227 24.0801 69.129 24.3555 68.9884 24.6484C68.8595 24.9297 68.6544 25.1875 68.3731 25.4219C68.1036 25.668 67.7637 25.8848 67.3536 26.0723C67.1895 26.1426 67.0255 26.1484 66.8614 26.0898C66.6973 26.043 66.5567 25.9434 66.4395 25.791C66.3458 25.6855 66.3165 25.5625 66.3516 25.4219C66.3868 25.293 66.463 25.2051 66.5802 25.1582C67.1544 24.9121 67.5704 24.6016 67.8282 24.2266C67.8516 24.2031 67.8516 24.1797 67.8282 24.1562C67.8165 24.1328 67.7989 24.1211 67.7755 24.1211H66.7032C66.422 24.1211 66.1759 24.0215 65.9649 23.8223C65.7657 23.6113 65.6661 23.3652 65.6661 23.084V22.0645C65.6661 21.9121 65.7188 21.7832 65.8243 21.6777C65.9298 21.5723 66.0587 21.5195 66.211 21.5195C66.3634 21.5195 66.4923 21.5723 66.5977 21.6777C66.7032 21.7832 66.7559 21.9121 66.7559 22.0645V22.9961C66.7559 23.0898 66.797 23.1367 66.879 23.1367H68.0391C68.1329 23.1367 68.1798 23.0898 68.1798 22.9961V22.8555V22.082C68.1798 21.8477 68.2618 21.6484 68.4259 21.4844C68.5899 21.3203 68.7891 21.2383 69.0235 21.2383C69.047 21.2383 69.0645 21.2266 69.0762 21.2031C69.0997 21.1797 69.1055 21.1562 69.0938 21.1328C69.0704 21.0625 69.0411 20.9863 69.0059 20.9043C68.9825 20.8223 68.9239 20.7871 68.8302 20.7988C68.1036 20.8691 67.0372 20.9453 65.6309 21.0273C65.502 21.0391 65.3848 21.0039 65.2794 20.9219C65.1739 20.8281 65.1153 20.7109 65.1036 20.5703C65.0802 20.4414 65.1095 20.3301 65.1915 20.2363C65.2852 20.1309 65.3966 20.0723 65.5255 20.0605L65.9825 20.043C66.0645 20.0312 66.1348 20.002 66.1934 19.9551C66.3692 19.7793 66.5509 19.5977 66.7384 19.4102C66.797 19.3398 66.797 19.2695 66.7384 19.1992C66.4102 18.8008 66.0235 18.4258 65.5782 18.0742C65.4845 17.9922 65.4317 17.8926 65.42 17.7754C65.4083 17.6582 65.4434 17.5586 65.5255 17.4766C65.6192 17.3828 65.7247 17.3301 65.8419 17.3184C65.9708 17.3066 66.088 17.3359 66.1934 17.4062C66.2169 17.418 66.2345 17.4355 66.2462 17.459C66.2813 17.4824 66.3106 17.4766 66.3341 17.4414C66.6387 17.0195 66.8848 16.6562 67.0723 16.3516C67.0958 16.3281 67.0958 16.3047 67.0723 16.2812C67.0606 16.2461 67.043 16.2285 67.0196 16.2285H64.2423C64.1485 16.2285 64.1016 16.2754 64.1016 16.3691V25.6152C64.1016 25.8379 64.0255 26.0254 63.8731 26.1777C63.7208 26.3418 63.5333 26.4238 63.3106 26.4238C63.088 26.4238 62.8946 26.3418 62.7305 26.1777C62.5782 26.0254 62.502 25.8379 62.502 25.6152V11.6582C62.502 11.3652 62.6016 11.1191 62.8009 10.9199C63.0118 10.7207 63.2579 10.6211 63.5391 10.6211H68.1622C68.4434 10.6211 68.6837 10.7207 68.8829 10.9199C69.0938 11.1191 69.1993 11.3652 69.1993 11.6582V15.1914C69.1993 15.4844 69.0938 15.7305 68.8829 15.9297C68.6837 16.1289 68.4434 16.2285 68.1622 16.2285H67.9512C67.9512 16.2285 67.9512 16.2344 67.9512 16.2461C68.0333 16.2812 68.086 16.3457 68.1095 16.4395C68.1446 16.5332 68.127 16.6211 68.0567 16.7031C67.6348 17.2422 67.2891 17.6523 67.0196 17.9336C66.961 18.0039 66.961 18.0684 67.0196 18.127C67.1837 18.291 67.3067 18.4199 67.3887 18.5137C67.4473 18.5723 67.5059 18.5723 67.5645 18.5137C67.8223 18.1973 68.0509 17.9102 68.2501 17.6523C68.3438 17.5469 68.461 17.4766 68.6016 17.4414C68.7423 17.3945 68.877 17.4004 69.0059 17.459C69.1231 17.5176 69.1934 17.6113 69.2169 17.7402C69.2403 17.8574 69.211 17.957 69.129 18.0391C68.4376 18.8125 67.8516 19.4277 67.3712 19.8848C67.3477 19.9082 67.3419 19.9316 67.3536 19.9551C67.3653 19.9668 67.3829 19.9727 67.4063 19.9727L68.461 19.9023C68.5196 19.9023 68.5372 19.8789 68.5137 19.832C68.4786 19.7734 68.4434 19.709 68.4083 19.6387C68.3497 19.5449 68.338 19.4453 68.3731 19.3398C68.42 19.2344 68.4962 19.1641 68.6016 19.1289C68.672 19.1055 68.7423 19.0938 68.8126 19.0938C69.0001 19.0938 69.1524 19.1816 69.2696 19.3574C69.5274 19.7559 69.7384 20.1484 69.9024 20.5352C69.879 20.418 69.9024 20.3125 69.9727 20.2188C70.043 20.125 70.1368 20.0723 70.254 20.0605H70.3419C70.3887 20.0488 70.4298 20.0312 70.4649 20.0078C70.5352 19.9492 70.7403 19.7559 71.0802 19.4277C71.1505 19.3574 71.1563 19.293 71.0977 19.2344C70.7696 18.8359 70.3653 18.4375 69.8848 18.0391C69.7911 17.957 69.7384 17.8574 69.7266 17.7402C69.7266 17.623 69.7677 17.5176 69.8497 17.4238C69.9552 17.3301 70.0723 17.2832 70.2012 17.2832C70.3302 17.2715 70.4473 17.3066 70.5528 17.3887C70.5762 17.4121 70.5997 17.4297 70.6231 17.4414C70.6583 17.4766 70.6876 17.4766 70.711 17.4414C71.0274 16.9844 71.2735 16.6094 71.4493 16.3164C71.461 16.3047 71.461 16.2871 71.4493 16.2637C71.4376 16.2402 71.42 16.2285 71.3966 16.2285C71.1856 16.2285 70.9981 16.1523 70.8341 16C70.6817 15.8477 70.6055 15.6602 70.6055 15.4375V11.6582C70.6055 11.3652 70.7052 11.1191 70.9044 10.9199C71.1036 10.7207 71.3497 10.6211 71.6427 10.6211H76.3887ZM96.1023 16.5801C96.2663 16.7441 96.3484 16.9434 96.3484 17.1777C96.3484 17.4004 96.2663 17.5938 96.1023 17.7578C95.9382 17.9219 95.7448 18.0039 95.5222 18.0039H88.9128C88.8308 18.0039 88.7898 18.0449 88.7898 18.127V19.7266C88.7898 19.7383 88.7898 19.7441 88.7898 19.7441C88.8015 19.7441 88.8132 19.7383 88.8249 19.7266C88.9187 19.5859 89.0417 19.4863 89.1941 19.4277C89.3581 19.3574 89.5222 19.3457 89.6862 19.3926C91.4441 19.9082 92.9968 20.4414 94.3445 20.9922C94.5554 21.0859 94.696 21.2441 94.7663 21.4668C94.7898 21.5488 94.8015 21.6309 94.8015 21.7129C94.8015 21.8418 94.7663 21.9707 94.696 22.0996C94.5788 22.3105 94.3972 22.4512 94.1511 22.5215C94.0573 22.5566 93.9636 22.5742 93.8698 22.5742C93.7292 22.5742 93.5945 22.5449 93.4655 22.4863C92.1648 21.9004 90.6472 21.3262 88.9128 20.7637C88.8777 20.752 88.8484 20.7578 88.8249 20.7812C88.8015 20.793 88.7898 20.8164 88.7898 20.8516V25.5273C88.7898 25.7617 88.7019 25.9668 88.5261 26.1426C88.3503 26.3184 88.1394 26.4062 87.8933 26.4062C87.6589 26.4062 87.4538 26.3184 87.278 26.1426C87.1023 25.9668 87.0144 25.7617 87.0144 25.5273V18.127C87.0144 18.0449 86.9734 18.0039 86.8913 18.0039H81.0905C80.8679 18.0039 80.6745 17.9219 80.5105 17.7578C80.3464 17.5938 80.2644 17.4004 80.2644 17.1777C80.2644 16.9434 80.3464 16.7441 80.5105 16.5801C80.6745 16.416 80.8679 16.334 81.0905 16.334H86.8913C86.9734 16.334 87.0144 16.293 87.0144 16.2109V10.7793C87.0144 10.5332 87.1023 10.3281 87.278 10.1641C87.4538 9.98828 87.6589 9.90039 87.8933 9.90039C88.1394 9.90039 88.3503 9.98828 88.5261 10.1641C88.7019 10.3281 88.7898 10.5332 88.7898 10.7793V12.168C88.7898 12.25 88.8308 12.291 88.9128 12.291H93.6062C93.8171 12.291 93.9987 12.373 94.1511 12.5371C94.3152 12.6895 94.3972 12.877 94.3972 13.0996C94.3972 13.3105 94.3152 13.498 94.1511 13.6621C93.9987 13.8145 93.8171 13.8906 93.6062 13.8906H88.9128C88.8308 13.8906 88.7898 13.9375 88.7898 14.0312V16.2109C88.7898 16.293 88.8308 16.334 88.9128 16.334H95.5222C95.7448 16.334 95.9382 16.416 96.1023 16.5801ZM99.1166 20.8867C99.14 20.6992 99.2279 20.5469 99.3802 20.4297C99.5443 20.3125 99.7259 20.2715 99.9252 20.3066C100.124 20.3418 100.283 20.4414 100.4 20.6055C100.494 20.7344 100.54 20.875 100.54 21.0273C100.54 21.0625 100.535 21.1035 100.523 21.1504C100.324 22.416 100.06 23.4824 99.7318 24.3496C99.6732 24.5254 99.5502 24.6426 99.3627 24.7012C99.1752 24.7598 98.9994 24.748 98.8353 24.666C98.6595 24.584 98.5365 24.4551 98.4662 24.2793C98.3959 24.1035 98.3959 23.9219 98.4662 23.7344C98.7474 22.9609 98.9642 22.0117 99.1166 20.8867ZM103.388 21.1504C103.329 20.9746 103.335 20.8047 103.406 20.6406C103.488 20.4766 103.617 20.3652 103.792 20.3066C103.968 20.248 104.144 20.2598 104.32 20.3418C104.495 20.4238 104.619 20.5527 104.689 20.7285C104.982 21.4668 105.228 22.1758 105.427 22.8555C105.439 22.9258 105.445 22.9961 105.445 23.0664C105.445 23.1836 105.415 23.3008 105.357 23.418C105.263 23.5938 105.122 23.7168 104.935 23.7871C104.759 23.8457 104.589 23.834 104.425 23.752C104.261 23.6582 104.156 23.5176 104.109 23.3301C103.945 22.709 103.704 21.9824 103.388 21.1504ZM110.718 23.541C110.718 23.623 110.765 23.6641 110.859 23.6641H112.669C112.751 23.6641 112.792 23.623 112.792 23.541V19.0762C112.792 18.9941 112.751 18.9531 112.669 18.9531H110.859C110.765 18.9531 110.718 18.9941 110.718 19.0762V23.541ZM107.431 18.9531C107.349 18.9531 107.308 18.9941 107.308 19.0762V23.541C107.308 23.623 107.349 23.6641 107.431 23.6641H109.119C109.201 23.6641 109.242 23.623 109.242 23.541V19.0762C109.242 18.9941 109.201 18.9531 109.119 18.9531H107.431ZM109.242 12.9766C109.242 12.8945 109.201 12.8535 109.119 12.8535H107.431C107.349 12.8535 107.308 12.8945 107.308 12.9766V17.2832C107.308 17.377 107.349 17.4238 107.431 17.4238H109.119C109.201 17.4238 109.242 17.377 109.242 17.2832V12.9766ZM112.669 17.4238C112.751 17.4238 112.792 17.377 112.792 17.2832V12.9766C112.792 12.8945 112.751 12.8535 112.669 12.8535H110.859C110.765 12.8535 110.718 12.8945 110.718 12.9766V17.2832C110.718 17.377 110.765 17.4238 110.859 17.4238H112.669ZM105.796 12.3262C105.796 12.0332 105.896 11.7871 106.095 11.5879C106.294 11.3887 106.54 11.2891 106.833 11.2891H113.32C113.613 11.2891 113.859 11.3887 114.058 11.5879C114.257 11.7871 114.357 12.0332 114.357 12.3262V25.2461C114.357 25.457 114.281 25.6387 114.128 25.791C113.976 25.9434 113.794 26.0195 113.583 26.0195H113.513C113.314 26.0195 113.144 25.9492 113.003 25.8086C112.863 25.668 112.792 25.498 112.792 25.2988C112.792 25.2402 112.763 25.2109 112.704 25.2109H107.413C107.343 25.2109 107.308 25.2461 107.308 25.3164V25.4219C107.308 25.6211 107.232 25.7969 107.079 25.9492C106.939 26.1016 106.763 26.1777 106.552 26.1777C106.341 26.1777 106.16 26.1016 106.007 25.9492C105.867 25.7969 105.796 25.6211 105.796 25.4219V19.4629C105.796 19.4277 105.779 19.4043 105.744 19.3926C105.72 19.3809 105.697 19.3809 105.673 19.3926L105.48 19.4805C105.363 19.5391 105.24 19.5684 105.111 19.5684C104.994 19.5684 104.87 19.5391 104.742 19.4805C104.495 19.375 104.326 19.1934 104.232 18.9355C104.22 18.8887 104.202 18.8418 104.179 18.7949C104.156 18.7129 104.097 18.6719 104.003 18.6719L102.878 18.7949C102.796 18.8066 102.755 18.8535 102.755 18.9355V25.6328C102.755 25.8438 102.679 26.0195 102.527 26.1602C102.386 26.3125 102.21 26.3887 101.999 26.3887C101.8 26.3887 101.624 26.3125 101.472 26.1602C101.331 26.0195 101.261 25.8438 101.261 25.6328V19.0762C101.261 18.9941 101.214 18.959 101.12 18.9707C100.499 19.0293 99.8666 19.0879 99.222 19.1465C99.1986 19.1582 99.1693 19.1641 99.1341 19.1641C98.9584 19.1641 98.8002 19.1055 98.6595 18.9883C98.4955 18.8594 98.3959 18.6895 98.3607 18.4785C98.3607 18.4434 98.3607 18.4082 98.3607 18.373C98.3607 18.209 98.4076 18.0625 98.5013 17.9336C98.6302 17.7812 98.8002 17.6992 99.0111 17.6875C99.0814 17.6758 99.2572 17.6641 99.5384 17.6523C99.6322 17.6406 99.7025 17.5996 99.7494 17.5293C99.972 17.2598 100.236 16.9199 100.54 16.5098C100.587 16.4277 100.587 16.3516 100.54 16.2812C100.119 15.6953 99.5443 15.0391 98.8177 14.3125C98.6537 14.1602 98.5716 13.9668 98.5716 13.7324C98.5716 13.5684 98.6244 13.416 98.7298 13.2754L98.7826 13.2051C98.8763 13.0762 98.9994 13.0059 99.1517 12.9941C99.3158 12.9707 99.4564 13.0117 99.5736 13.1172C99.6205 13.1523 99.6556 13.1465 99.6791 13.0996C100.113 12.291 100.499 11.4648 100.839 10.6211C100.933 10.4219 101.079 10.2754 101.279 10.1816C101.384 10.1348 101.49 10.1113 101.595 10.1113C101.689 10.1113 101.783 10.1289 101.876 10.1641C102.076 10.2461 102.21 10.3867 102.281 10.5859C102.316 10.668 102.333 10.75 102.333 10.832C102.333 10.9492 102.304 11.0605 102.245 11.166C101.589 12.3848 101.056 13.3223 100.646 13.9785C100.599 14.0488 100.605 14.1191 100.663 14.1895C100.945 14.4824 101.185 14.7637 101.384 15.0332C101.431 15.1035 101.478 15.1035 101.525 15.0332C102.052 14.2246 102.527 13.4395 102.949 12.6777C103.054 12.4902 103.206 12.3613 103.406 12.291C103.499 12.2559 103.587 12.2383 103.669 12.2383C103.786 12.2383 103.898 12.2676 104.003 12.3262C104.191 12.4082 104.314 12.5488 104.372 12.748C104.396 12.8184 104.408 12.8828 104.408 12.9414C104.408 13.0703 104.367 13.1934 104.285 13.3105C103.288 14.834 102.304 16.2051 101.331 17.4238C101.32 17.4473 101.32 17.4707 101.331 17.4941C101.343 17.5176 101.361 17.5293 101.384 17.5293L103.406 17.3711C103.441 17.3711 103.464 17.3594 103.476 17.3359C103.499 17.3125 103.499 17.2832 103.476 17.248C103.382 17.0723 103.283 16.8965 103.177 16.7207C103.095 16.5566 103.077 16.3926 103.124 16.2285C103.183 16.0527 103.294 15.9297 103.458 15.8594C103.634 15.7773 103.816 15.7656 104.003 15.8242C104.191 15.8828 104.337 15.9941 104.443 16.1582C105.04 17.166 105.474 18.0684 105.744 18.8652C105.755 18.877 105.767 18.8828 105.779 18.8828C105.79 18.8828 105.796 18.8711 105.796 18.8477V12.3262ZM123.031 16.4219C123.031 16.3281 122.99 16.2812 122.908 16.2812H119.779C119.697 16.2812 119.656 16.3281 119.656 16.4219V17.2832C119.656 17.377 119.697 17.4238 119.779 17.4238H122.908C122.99 17.4238 123.031 17.377 123.031 17.2832V16.4219ZM119.656 19.7266C119.656 19.8086 119.697 19.8496 119.779 19.8496H122.908C122.99 19.8496 123.031 19.8086 123.031 19.7266V18.7773C123.031 18.6953 122.99 18.6543 122.908 18.6543H119.779C119.697 18.6543 119.656 18.6953 119.656 18.7773V19.7266ZM121.977 22.5391C121.871 22.3984 121.836 22.2402 121.871 22.0645C121.906 21.8887 122.006 21.7598 122.17 21.6777C122.299 21.6074 122.434 21.5723 122.574 21.5723C122.633 21.5723 122.697 21.5781 122.768 21.5898C122.967 21.6367 123.137 21.7422 123.277 21.9062C123.992 22.7734 124.584 23.6465 125.053 24.5254C125.111 24.6426 125.141 24.7598 125.141 24.877C125.141 24.959 125.129 25.041 125.105 25.123C125.035 25.334 124.9 25.4922 124.701 25.5977C124.596 25.6445 124.484 25.668 124.367 25.668C124.285 25.668 124.203 25.6562 124.121 25.6328C123.934 25.5625 123.793 25.4336 123.699 25.2461C123.629 25.1055 123.559 24.9648 123.488 24.8242C123.441 24.7539 123.377 24.7246 123.295 24.7363C121.877 24.9824 120.031 25.2812 117.758 25.6328C117.723 25.6328 117.682 25.6328 117.635 25.6328C117.482 25.6328 117.336 25.5859 117.195 25.4922C117.031 25.375 116.932 25.2109 116.896 25C116.885 24.9531 116.879 24.9062 116.879 24.8594C116.879 24.7188 116.926 24.584 117.02 24.4551C117.137 24.291 117.295 24.1914 117.494 24.1562L117.969 24.1035C118.062 24.0918 118.109 24.0391 118.109 23.9453V16.0352C118.109 15.7422 118.209 15.4961 118.408 15.2969C118.607 15.0977 118.854 14.998 119.146 14.998H123.559C123.852 14.998 124.098 15.0977 124.297 15.2969C124.496 15.4961 124.596 15.7422 124.596 16.0352V20.0957C124.596 20.377 124.496 20.623 124.297 20.834C124.098 21.0332 123.852 21.1328 123.559 21.1328H119.779C119.697 21.1328 119.656 21.1738 119.656 21.2559V23.7168C119.656 23.7988 119.697 23.834 119.779 23.8223C120.096 23.7871 120.559 23.7227 121.168 23.6289C121.777 23.5352 122.217 23.4707 122.486 23.4355C122.521 23.4355 122.545 23.4238 122.557 23.4004C122.568 23.3652 122.562 23.3359 122.539 23.3125C122.328 23.0078 122.141 22.75 121.977 22.5391ZM131.434 14.998C131.715 14.998 131.955 15.0977 132.154 15.2969C132.365 15.4961 132.471 15.7422 132.471 16.0352V22.5039C132.471 22.9258 132.412 23.2598 132.295 23.5059C132.189 23.7402 131.99 23.9219 131.697 24.0508C131.311 24.2148 130.637 24.3027 129.676 24.3145C129.664 24.3145 129.658 24.3145 129.658 24.3145C129.424 24.3145 129.219 24.2383 129.043 24.0859C128.855 23.9453 128.727 23.7578 128.656 23.5234C128.598 23.3359 128.621 23.166 128.727 23.0137C128.832 22.8613 128.979 22.7852 129.166 22.7852C129.588 22.7852 130.033 22.7852 130.502 22.7852C130.643 22.7734 130.736 22.75 130.783 22.7148C130.83 22.668 130.854 22.5918 130.854 22.4863V16.6328C130.854 16.5508 130.807 16.5098 130.713 16.5098H127.637C127.543 16.5098 127.496 16.5508 127.496 16.6328V25.4746C127.496 25.6973 127.42 25.8848 127.268 26.0371C127.115 26.1895 126.928 26.2656 126.705 26.2656C126.494 26.2656 126.312 26.1895 126.16 26.0371C126.008 25.8848 125.932 25.6973 125.932 25.4746V16.0352C125.932 15.7422 126.031 15.4961 126.23 15.2969C126.441 15.0977 126.688 14.998 126.969 14.998H131.434ZM127.531 11.2891C127.52 11.3242 127.52 11.3535 127.531 11.377C127.543 11.4004 127.566 11.4121 127.602 11.4121H132.383C132.559 11.4121 132.711 11.4766 132.84 11.6055C132.969 11.7227 133.033 11.8691 133.033 12.0449C133.033 12.2207 132.969 12.373 132.84 12.502C132.711 12.6309 132.559 12.6953 132.383 12.6953H129.658C129.623 12.6953 129.6 12.707 129.588 12.7305C129.576 12.7539 129.576 12.7773 129.588 12.8008C129.799 13.0938 129.986 13.375 130.15 13.6445C130.209 13.75 130.238 13.8613 130.238 13.9785C130.238 14.0605 130.221 14.1426 130.186 14.2246C130.115 14.4121 129.98 14.5469 129.781 14.6289C129.688 14.6641 129.594 14.6816 129.5 14.6816C129.395 14.6816 129.289 14.6582 129.184 14.6113C128.984 14.5293 128.832 14.3887 128.727 14.1895C128.48 13.7441 128.176 13.2812 127.812 12.8008C127.766 12.7305 127.695 12.6953 127.602 12.6953H126.846C126.752 12.6953 126.682 12.7305 126.635 12.8008C126.295 13.293 125.926 13.75 125.527 14.1719C125.375 14.3477 125.176 14.4414 124.93 14.4531C124.918 14.4531 124.9 14.4531 124.877 14.4531C124.654 14.4531 124.455 14.3887 124.279 14.2598C124.104 14.1309 124.016 13.9492 124.016 13.7148C124.016 13.5508 124.074 13.4043 124.191 13.2754C124.344 13.123 124.496 12.959 124.648 12.7832C124.66 12.7715 124.66 12.7539 124.648 12.7305C124.637 12.707 124.619 12.6953 124.596 12.6953H121.854C121.83 12.6953 121.807 12.707 121.783 12.7305C121.771 12.7539 121.771 12.7773 121.783 12.8008C121.912 13.0469 122.035 13.2988 122.152 13.5566C122.188 13.6504 122.205 13.7441 122.205 13.8379C122.205 13.9434 122.182 14.043 122.135 14.1367C122.053 14.3359 121.912 14.4766 121.713 14.5586C121.619 14.5938 121.531 14.6113 121.449 14.6113C121.344 14.6113 121.244 14.5879 121.15 14.541C120.963 14.459 120.834 14.3242 120.764 14.1367C120.6 13.7031 120.4 13.2578 120.166 12.8008C120.131 12.7305 120.066 12.6953 119.973 12.6953H119.762C119.68 12.6953 119.615 12.7305 119.568 12.8008C119.252 13.3047 118.924 13.7617 118.584 14.1719C118.432 14.3477 118.238 14.4473 118.004 14.4707C117.969 14.4824 117.934 14.4883 117.898 14.4883C117.699 14.4883 117.518 14.4297 117.354 14.3125C117.154 14.1836 117.055 13.9961 117.055 13.75C117.055 13.5742 117.113 13.4219 117.23 13.293C117.922 12.5312 118.508 11.6172 118.988 10.5508C119.082 10.3398 119.234 10.1816 119.445 10.0762C119.574 10.0059 119.709 9.9707 119.85 9.9707C119.932 9.9707 120.008 9.97656 120.078 9.98828C120.289 10.0469 120.447 10.1758 120.553 10.375C120.6 10.4688 120.623 10.5684 120.623 10.6738C120.623 10.7676 120.6 10.8613 120.553 10.9551C120.506 11.0723 120.453 11.1836 120.395 11.2891C120.383 11.3125 120.383 11.3418 120.395 11.377C120.418 11.4004 120.441 11.4121 120.465 11.4121H123.717C123.998 11.4121 124.238 11.5117 124.438 11.7109C124.648 11.9102 124.754 12.1562 124.754 12.4492V12.5371C124.754 12.5605 124.76 12.5781 124.771 12.5898C124.795 12.5898 124.812 12.584 124.824 12.5723C125.34 11.9512 125.768 11.2773 126.107 10.5508C126.213 10.3398 126.365 10.1816 126.564 10.0762C126.705 9.99414 126.852 9.95312 127.004 9.95312C127.074 9.95312 127.145 9.96484 127.215 9.98828C127.438 10.0352 127.596 10.1582 127.689 10.3574C127.736 10.4629 127.76 10.5625 127.76 10.6562C127.76 10.75 127.742 10.8438 127.707 10.9375C127.648 11.0664 127.59 11.1836 127.531 11.2891Z" fill="white"/>
</svg>
