<svg width="59" height="20" viewBox="0 0 59 20" fill="none" xmlns="http://www.w3.org/2000/svg">
<path d="M5.54688 19.3281C3.54688 19.3281 1.96875 18.6641 0.8125 17.3359C0.625 17.1016 0.53125 16.8438 0.53125 16.5625C0.53125 16.4844 0.539062 16.4062 0.554688 16.3281C0.617188 15.9375 0.8125 15.625 1.14062 15.3906L1.35156 15.2266C1.60156 15.0703 1.85156 14.9922 2.10156 14.9922C2.17969 14.9922 2.26562 15 2.35938 15.0156C2.70312 15.0781 3.01562 15.25 3.29688 15.5312C3.82812 16.0156 4.4375 16.2578 5.125 16.2578C5.92188 16.2578 6.51562 16.0078 6.90625 15.5078C7.29688 15.0078 7.49219 14.1641 7.49219 12.9766V2.61719C7.49219 2.24219 7.625 1.92188 7.89062 1.65625C8.17188 1.375 8.5 1.23438 8.875 1.23438H9.67188C10.0469 1.23438 10.3672 1.375 10.6328 1.65625C10.9141 1.92188 11.0547 2.24219 11.0547 2.61719V13.2578C11.0547 14.1172 10.9375 14.9062 10.7031 15.625C10.4844 16.3438 10.1562 16.9844 9.71875 17.5469C9.29688 18.1094 8.72656 18.5469 8.00781 18.8594C7.28906 19.1719 6.46875 19.3281 5.54688 19.3281ZM29.2937 16.8203C27.8406 18.4922 25.9266 19.3281 23.5516 19.3281C21.1766 19.3281 19.2547 18.4922 17.7859 16.8203C16.3328 15.1484 15.6062 12.8906 15.6062 10.0469C15.6062 7.20312 16.3328 4.96875 17.7859 3.34375C19.2391 1.71875 21.1609 0.90625 23.5516 0.90625C25.9422 0.90625 27.8641 1.71875 29.3172 3.34375C30.7703 4.96875 31.4969 7.20312 31.4969 10.0469C31.4969 12.8906 30.7625 15.1484 29.2937 16.8203ZM20.4109 14.5703C21.1922 15.6953 22.2391 16.2578 23.5516 16.2578C24.8797 16.2578 25.9344 15.6953 26.7156 14.5703C27.4969 13.4453 27.8875 11.9375 27.8875 10.0469C27.8875 8.15625 27.4969 6.67188 26.7156 5.59375C25.9344 4.5 24.8797 3.95312 23.5516 3.95312C22.2234 3.95312 21.1687 4.5 20.3875 5.59375C19.6219 6.67188 19.2391 8.15625 19.2391 10.0469C19.2391 11.9375 19.6297 13.4453 20.4109 14.5703ZM37.5484 19C37.1734 19 36.8453 18.8672 36.5641 18.6016C36.2984 18.3203 36.1656 17.9922 36.1656 17.6172V2.61719C36.1656 2.24219 36.2984 1.92188 36.5641 1.65625C36.8453 1.375 37.1734 1.23438 37.5484 1.23438H38.3453C38.7203 1.23438 39.0406 1.375 39.3063 1.65625C39.5875 1.92188 39.7281 2.24219 39.7281 2.61719V17.6172C39.7281 17.9922 39.5875 18.3203 39.3063 18.6016C39.0406 18.8672 38.7203 19 38.3453 19H37.5484ZM46.6469 19C46.2719 19 45.9437 18.8672 45.6625 18.6016C45.3969 18.3203 45.2641 17.9922 45.2641 17.6172V2.61719C45.2641 2.24219 45.3969 1.92188 45.6625 1.65625C45.9437 1.375 46.2719 1.23438 46.6469 1.23438H47.5141C47.9359 1.23438 48.3266 1.34375 48.6859 1.5625C49.0609 1.78125 49.35 2.07812 49.5531 2.45312L54.0531 10.7031L55.8109 14.4766C55.8266 14.5234 55.85 14.5469 55.8812 14.5469C55.9281 14.5469 55.9516 14.5234 55.9516 14.4766C55.6391 11.6016 55.4828 9.54688 55.4828 8.3125V2.61719C55.4828 2.24219 55.6156 1.92188 55.8812 1.65625C56.1625 1.375 56.4906 1.23438 56.8656 1.23438H57.475C57.85 1.23438 58.1703 1.375 58.4359 1.65625C58.7172 1.92188 58.8578 2.24219 58.8578 2.61719V17.6172C58.8578 17.9922 58.7172 18.3203 58.4359 18.6016C58.1703 18.8672 57.85 19 57.475 19H56.6312C56.2094 19 55.8109 18.8906 55.4359 18.6719C55.0766 18.4531 54.7953 18.1562 54.5922 17.7812L50.1156 9.48438L48.3344 5.73438C48.3187 5.70312 48.2875 5.6875 48.2406 5.6875C48.2094 5.6875 48.1937 5.70312 48.1937 5.73438C48.225 5.96875 48.2719 6.44531 48.3344 7.16406C48.3969 7.88281 48.4437 8.4375 48.475 8.82812C48.5062 9.20312 48.5375 9.6875 48.5687 10.2812C48.6156 10.875 48.6391 11.4062 48.6391 11.875V17.6172C48.6391 17.9922 48.4984 18.3203 48.2172 18.6016C47.9516 18.8672 47.6312 19 47.2562 19H46.6469Z" fill="#007FAB"/>
</svg>
