<svg width="123" height="26" viewBox="0 0 123 26" fill="none" xmlns="http://www.w3.org/2000/svg">
<path d="M5.03125 5.0625C4.88542 5.0625 4.8125 5.14583 4.8125 5.3125V12.0625C4.8125 12.2083 4.88542 12.2812 5.03125 12.2812H7.875C9.39583 12.2812 10.5625 11.9688 11.375 11.3438C12.1875 10.6979 12.5938 9.75 12.5938 8.5C12.5938 7.25 12.1979 6.36458 11.4062 5.84375C10.6354 5.32292 9.45833 5.0625 7.875 5.0625H5.03125ZM17.3438 23.4062C17.4271 23.5729 17.4688 23.75 17.4688 23.9375C17.4688 24.1042 17.4167 24.2812 17.3125 24.4688C17.125 24.8229 16.8229 25 16.4062 25H14.8125C14.25 25 13.7188 24.8542 13.2188 24.5625C12.7396 24.2708 12.3646 23.875 12.0938 23.375L8.21875 16.25C8.13542 16.1042 8.02083 16.0312 7.875 16.0312H5.03125C4.88542 16.0312 4.8125 16.1146 4.8125 16.2812V23.1562C4.8125 23.6562 4.625 24.0938 4.25 24.4688C3.89583 24.8229 3.46875 25 2.96875 25H1.90625C1.40625 25 0.96875 24.8229 0.59375 24.4688C0.239583 24.0938 0.0625 23.6562 0.0625 23.1562V3.15625C0.0625 2.65625 0.239583 2.22917 0.59375 1.875C0.96875 1.5 1.40625 1.3125 1.90625 1.3125H8.3125C14.25 1.3125 17.2188 3.70833 17.2188 8.5C17.2188 10.1667 16.8438 11.5625 16.0938 12.6875C15.3438 13.8125 14.2917 14.6562 12.9375 15.2188C12.7917 15.2812 12.75 15.375 12.8125 15.5L17.3438 23.4062ZM25.3188 25C24.8188 25 24.3813 24.8229 24.0063 24.4688C23.6521 24.0938 23.475 23.6562 23.475 23.1562V3.15625C23.475 2.65625 23.6521 2.22917 24.0063 1.875C24.3813 1.5 24.8188 1.3125 25.3188 1.3125H36.1625C36.6833 1.3125 37.1208 1.5 37.475 1.875C37.8292 2.22917 38.0063 2.65625 38.0063 3.15625V3.40625C38.0063 3.92708 37.8292 4.36458 37.475 4.71875C37.1208 5.07292 36.6833 5.25 36.1625 5.25H28.4438C28.2979 5.25 28.225 5.33333 28.225 5.5V10.5C28.225 10.6458 28.2979 10.7188 28.4438 10.7188H34.6938C35.1938 10.7188 35.6208 10.9062 35.975 11.2812C36.35 11.6354 36.5375 12.0625 36.5375 12.5625V12.8438C36.5375 13.3646 36.35 13.8021 35.975 14.1562C35.6208 14.5104 35.1938 14.6875 34.6938 14.6875H28.4438C28.2979 14.6875 28.225 14.7708 28.225 14.9375V20.8125C28.225 20.9583 28.2979 21.0312 28.4438 21.0312H36.5063C37.0271 21.0312 37.4646 21.2188 37.8188 21.5938C38.1729 21.9479 38.35 22.375 38.35 22.875V23.1562C38.35 23.6562 38.1729 24.0938 37.8188 24.4688C37.4646 24.8229 37.0271 25 36.5063 25H25.3188ZM49.2625 15C49.2417 15.0625 49.2417 15.125 49.2625 15.1875C49.3042 15.2292 49.3563 15.25 49.4188 15.25H54.575C54.6375 15.25 54.6896 15.2292 54.7313 15.1875C54.7729 15.125 54.7833 15.0625 54.7625 15L54.1063 12.6562C53.8354 11.7188 53.4604 10.3333 52.9813 8.5C52.5021 6.64583 52.1896 5.46875 52.0438 4.96875C52.0438 4.92708 52.0229 4.90625 51.9813 4.90625C51.9396 4.90625 51.9083 4.92708 51.8875 4.96875C51.2833 7.51042 50.6167 10.0729 49.8875 12.6562L49.2625 15ZM59.3563 25C58.8146 25 58.325 24.8333 57.8875 24.5C57.45 24.1667 57.1583 23.7396 57.0125 23.2188L55.9188 19.1562C55.8771 18.9896 55.7729 18.9062 55.6063 18.9062H48.3875C48.2417 18.9062 48.1479 18.9896 48.1063 19.1562L46.9813 23.2188C46.8354 23.7396 46.5438 24.1667 46.1063 24.5C45.6896 24.8333 45.2104 25 44.6688 25H43.5438C43.0854 25 42.7208 24.8125 42.45 24.4375C42.2833 24.2083 42.2 23.9583 42.2 23.6875C42.2 23.5417 42.2208 23.3958 42.2625 23.25L48.7313 3.0625C48.8979 2.54167 49.2 2.125 49.6375 1.8125C50.075 1.47917 50.575 1.3125 51.1375 1.3125H53.0125C53.5542 1.3125 54.0438 1.47917 54.4813 1.8125C54.9396 2.125 55.2521 2.54167 55.4188 3.0625L61.9188 23.25C61.9604 23.3958 61.9813 23.5417 61.9813 23.6875C61.9813 23.9583 61.8875 24.2083 61.7 24.4375C61.4292 24.8125 61.075 25 60.6375 25H59.3563ZM68.675 25C68.175 25 67.7375 24.8229 67.3625 24.4688C67.0083 24.0938 66.8313 23.6562 66.8313 23.1562V3.15625C66.8313 2.65625 67.0083 2.22917 67.3625 1.875C67.7375 1.5 68.175 1.3125 68.675 1.3125H73.3313C77.0396 1.3125 79.9146 2.29167 81.9563 4.25C84.0188 6.20833 85.05 9.14583 85.05 13.0625C85.05 16.9583 84.0292 19.9271 81.9875 21.9688C79.9667 23.9896 77.1646 25 73.5813 25H68.675ZM71.5813 20.9688C71.5813 21.1146 71.6542 21.1875 71.8 21.1875H73.05C77.8208 21.1875 80.2063 18.4792 80.2063 13.0625C80.2063 10.2708 79.5917 8.25 78.3625 7C77.1333 5.72917 75.3625 5.09375 73.05 5.09375H71.8C71.6542 5.09375 71.5813 5.17708 71.5813 5.34375V20.9688ZM96.4938 25C95.9938 25 95.5563 24.8229 95.1813 24.4688C94.8271 24.0938 94.65 23.6562 94.65 23.1562V16.5625C94.65 16.3958 94.6188 16.25 94.5563 16.125L88.3375 3C88.2542 2.8125 88.2125 2.63542 88.2125 2.46875C88.2125 2.26042 88.275 2.0625 88.4 1.875C88.6292 1.5 88.9625 1.3125 89.4 1.3125H90.7438C91.2854 1.3125 91.7854 1.46875 92.2438 1.78125C92.7229 2.09375 93.0667 2.51042 93.275 3.03125L94.9625 7.09375C95.7542 9.19792 96.4208 10.9271 96.9625 12.2812C96.9833 12.3021 97.0146 12.3125 97.0563 12.3125C97.0979 12.3125 97.1292 12.3021 97.15 12.2812C98.4417 9.05208 99.1396 7.32292 99.2438 7.09375L100.9 3.03125C101.108 2.51042 101.442 2.09375 101.9 1.78125C102.379 1.46875 102.9 1.3125 103.463 1.3125H104.681C105.119 1.3125 105.452 1.5 105.681 1.875C105.806 2.0625 105.869 2.26042 105.869 2.46875C105.869 2.63542 105.827 2.8125 105.744 3L99.4938 16.125C99.4313 16.25 99.4 16.3958 99.4 16.5625V23.1562C99.4 23.6562 99.2125 24.0938 98.8375 24.4688C98.4833 24.8229 98.0563 25 97.5563 25H96.4938ZM117.312 15.125C117.167 15.625 116.917 16.0521 116.562 16.4062C116.208 16.7604 115.792 16.9375 115.312 16.9375H114.906C114.365 16.9375 113.906 16.7604 113.531 16.4062C113.198 16.0938 113.031 15.7396 113.031 15.3438C113.031 15.2604 113.042 15.1771 113.062 15.0938C113.167 14.3854 113.396 13.6979 113.75 13.0312C114.104 12.3438 114.5 11.7396 114.938 11.2188C115.375 10.6979 115.802 10.1979 116.219 9.71875C116.656 9.21875 117.021 8.70833 117.312 8.1875C117.604 7.66667 117.75 7.15625 117.75 6.65625C117.75 5.86458 117.5 5.22917 117 4.75C116.521 4.27083 115.865 4.03125 115.031 4.03125C114.26 4.03125 113.521 4.26042 112.812 4.71875C112.375 4.98958 111.917 5.125 111.438 5.125C110.979 5.125 110.562 4.96875 110.188 4.65625C109.792 4.30208 109.594 3.875 109.594 3.375C109.594 2.91667 109.781 2.54167 110.156 2.25C111.781 0.916667 113.594 0.25 115.594 0.25C117.594 0.25 119.198 0.770833 120.406 1.8125C121.635 2.85417 122.25 4.36458 122.25 6.34375C122.25 7.07292 122.104 7.77083 121.812 8.4375C121.542 9.08333 121.188 9.67708 120.75 10.2188C120.333 10.7396 119.896 11.25 119.438 11.75C119 12.2292 118.573 12.7708 118.156 13.375C117.76 13.9583 117.479 14.5417 117.312 15.125ZM115.125 25.4375C114.292 25.4375 113.594 25.1458 113.031 24.5625C112.49 23.9792 112.219 23.25 112.219 22.375C112.219 21.5 112.49 20.7708 113.031 20.1875C113.594 19.6042 114.292 19.3125 115.125 19.3125C115.958 19.3125 116.656 19.6042 117.219 20.1875C117.781 20.7708 118.062 21.5 118.062 22.375C118.062 23.25 117.781 23.9792 117.219 24.5625C116.656 25.1458 115.958 25.4375 115.125 25.4375Z" fill="#FF5136"/>
</svg>
